<svg width="70" height="70" viewBox="0 0 70 70" fill="none" xmlns="http://www.w3.org/2000/svg">
<g clip-path="url(#clip0_1_760)">
<path d="M67.1182 29.245L66.2178 28.5715C65.0963 27.732 64.6984 26.2463 65.2496 24.9587L65.6928 23.9253C66.5933 21.8227 66.4539 19.4809 65.3105 17.5006C64.1665 15.5198 62.2087 14.2279 59.9374 13.9572L58.8212 13.8236C57.43 13.6575 56.3421 12.5697 56.176 11.179L56.043 10.0623C55.7717 7.79151 54.4799 5.83313 52.4996 4.68972C50.5188 3.54578 48.177 3.40639 46.0749 4.30734L45.041 4.75007C43.7534 5.30175 42.2677 4.90334 41.4281 3.78183L40.7547 2.88195C39.3843 1.05068 37.2871 0.000732422 34.9997 0.000732422C32.7124 0.000732422 30.6151 1.05068 29.2448 2.88195L28.5708 3.78183C27.7313 4.90388 26.2461 5.30175 24.9579 4.75007L23.9245 4.30734C21.822 3.40693 19.4801 3.54578 17.4999 4.68972C15.5191 5.83313 14.2272 7.79151 13.9564 10.0623L13.8229 11.1785C13.6568 12.5697 12.5689 13.6575 11.1777 13.8236L10.0616 13.9572C7.79077 14.2279 5.8324 15.5198 4.68899 17.5006C3.54505 19.4809 3.40619 21.8227 4.30661 23.9253L4.74934 24.9587C5.30101 26.2463 4.90261 27.732 3.7811 28.5715L2.88122 29.245C1.05048 30.6154 0 32.7131 0 34.9999C0 37.2873 1.05048 39.385 2.88122 40.7554L3.78163 41.4289C4.90314 42.2684 5.30101 43.7541 4.74987 45.0417L4.30661 46.0751C3.40619 48.1777 3.54558 50.5195 4.68899 52.4998C5.83293 54.4806 7.79077 55.7725 10.0621 56.0432L11.1783 56.1768C12.5695 56.3428 13.6573 57.4307 13.8234 58.8214L13.9564 59.9381C14.2277 62.2089 15.5196 64.1673 17.4999 65.3107C19.4807 66.4541 21.8225 66.5935 23.9245 65.6931L24.9585 65.2503C26.2461 64.6986 27.7318 65.0971 28.5713 66.2186L29.2448 67.1184C30.6151 68.9497 32.7129 70.0002 35.0003 70.0002C37.2871 70.0002 39.3848 68.9497 40.7552 67.1184L41.4287 66.2186C42.2682 65.0971 43.7534 64.6986 45.0421 65.2509L46.0755 65.6931C48.1775 66.5935 50.5193 66.4546 52.5001 65.3112C54.4804 64.1673 55.7723 62.2089 56.0436 59.9381L56.1765 58.8219C56.3426 57.4307 57.4305 56.3428 58.8217 56.1768L59.9379 56.0438C62.2087 55.7725 64.1676 54.4806 65.311 52.5003C66.4544 50.5195 66.5938 48.1777 65.6928 46.0751L65.2506 45.0423C64.699 43.7541 65.0968 42.2684 66.2189 41.4289L67.1188 40.7554C68.95 39.385 70 37.2873 70 35.0005C69.9995 32.7131 68.949 30.6154 67.1182 29.245ZM65.4798 38.5663L64.5799 39.2398C62.4442 40.8377 61.6858 43.6666 62.7369 46.1189L63.1791 47.1518C63.7371 48.4543 63.6506 49.9054 62.9425 51.1326C62.2338 52.3604 61.0204 53.1604 59.6132 53.3286L58.497 53.4616C55.8481 53.7778 53.7776 55.8488 53.4614 58.4978L53.3279 59.6139C53.1597 61.0212 52.3597 62.2345 51.1324 62.9432C49.9052 63.6514 48.4541 63.7379 47.1516 63.1798L46.1182 62.7371C43.6658 61.6866 40.8375 62.4449 39.239 64.5806L38.5656 65.4805C37.7165 66.6148 36.4166 67.2658 34.9997 67.2658C33.5823 67.2658 32.2825 66.6148 31.4333 65.4805L30.7599 64.5806C29.6432 63.0879 27.9257 62.2682 26.1558 62.2682C25.3926 62.2682 24.6199 62.4209 23.8813 62.7371L22.8479 63.1798C21.5448 63.7379 20.0943 63.6514 18.8665 62.9432C17.6392 62.2345 16.8392 61.0212 16.671 59.6139L16.538 58.4978C16.2213 55.8488 14.1508 53.7783 11.5019 53.4622L10.3857 53.3286C8.97851 53.1604 7.76514 52.3604 7.05645 51.1332C6.34829 49.9059 6.26178 48.4549 6.81986 47.1523L7.26259 46.1189C8.31308 43.6671 7.55472 40.8382 5.41957 39.2398L4.51916 38.5663C3.38483 37.7172 2.73435 36.4173 2.73435 34.9999C2.73435 33.5831 3.38483 32.2832 4.51969 31.4341L5.41957 30.7606C7.55525 29.1622 8.31361 26.3333 7.26259 23.8815L6.8204 22.8481C6.26231 21.5455 6.34883 20.0945 7.05698 18.8672C7.76567 17.64 8.97904 16.84 10.3863 16.6717L11.5024 16.5382C14.1513 16.2221 16.2219 14.1515 16.538 11.5026L16.6715 10.3865C16.8398 8.97924 17.6398 7.76587 18.867 7.05718C20.0943 6.34849 21.5453 6.26251 22.8479 6.8206L23.8813 7.26279C26.3331 8.31328 29.162 7.55545 30.7604 5.41977L31.4339 4.51989C32.283 3.38556 33.5829 2.73455 34.9997 2.73455C36.4166 2.73455 37.7165 3.38556 38.5656 4.51989L39.2396 5.42031C40.8375 7.55599 43.6669 8.31381 46.1182 7.26333L47.1516 6.8206C48.4541 6.26251 49.9052 6.34903 51.1324 7.05718C52.3597 7.76587 53.1602 8.97924 53.3279 10.3865L53.4614 11.5026C53.7776 14.1515 55.8486 16.2221 58.497 16.5382L59.6132 16.6717C61.0204 16.84 62.2338 17.64 62.9425 18.8672C63.6512 20.0945 63.7371 21.5455 63.1796 22.8481L62.7369 23.8815C61.6864 26.3338 62.4442 29.1622 64.5799 30.7606L65.4798 31.4341C66.6146 32.2832 67.2651 33.5831 67.2651 35.0005C67.2651 36.4173 66.6146 37.7172 65.4798 38.5663Z" fill="#FFAF00"/>
<path d="M34.9996 7.94647C30.8751 7.94647 26.9146 8.85116 23.2285 10.6354C22.5487 10.9644 22.2646 11.782 22.593 12.4614C22.922 13.1412 23.7401 13.4253 24.4195 13.0963C27.7311 11.4937 31.2906 10.6808 34.9996 10.6808C48.4091 10.6808 59.3188 21.5905 59.3188 35.0006C59.3188 48.4101 48.4091 59.3197 34.9996 59.3197C21.5895 59.3197 10.6799 48.4101 10.6799 35.0006C10.6799 29.5078 12.4663 24.3254 15.8463 20.0129C16.312 19.4185 16.2079 18.5592 15.6135 18.093C15.019 17.6273 14.1598 17.7319 13.6941 18.3258C9.93379 23.1248 7.94604 28.8904 7.94604 35.0006C7.94604 49.9177 20.0824 62.0541 34.9996 62.0541C49.9168 62.0541 62.0531 49.9177 62.0531 35.0006C62.0531 20.0828 49.9168 7.94647 34.9996 7.94647Z" fill="#FFAF00"/>
<path d="M15.0102 28.0391L13.9688 29.3668C13.5026 29.9612 13.6067 30.8205 14.2006 31.2862C14.795 31.7524 15.6543 31.6488 16.12 31.0544L16.692 30.326V39.3681H15.7766C15.0215 39.3681 14.4094 39.9801 14.4094 40.7353C14.4094 41.4904 15.0215 42.1025 15.7766 42.1025H20.2947C21.0494 42.1025 21.6619 41.4904 21.6619 40.7353C21.6619 39.9801 21.0494 39.3681 20.2947 39.3681H19.4264V28.8829C19.4264 28.1278 18.8138 27.5157 18.0592 27.5157H16.0858C15.6661 27.5157 15.2693 27.7085 15.0102 28.0391Z" fill="#FFAF00"/>
<path d="M25.9967 42.1025H26.707C28.965 42.1025 30.8016 40.2658 30.8016 38.0079V31.3807C30.8016 29.1227 28.9645 27.2856 26.707 27.2856H25.9967C23.7387 27.2856 21.9021 29.1227 21.9021 31.3807V38.0079C21.9021 40.2658 23.7387 42.1025 25.9967 42.1025ZM24.6365 31.3807C24.6365 30.6304 25.2469 30.02 25.9967 30.02H26.707C27.4568 30.02 28.0673 30.6304 28.0673 31.3807V38.0079C28.0673 38.7577 27.4568 39.3681 26.707 39.3681H25.9967C25.2469 39.3681 24.6365 38.7577 24.6365 38.0079V31.3807Z" fill="#FFAF00"/>
<path d="M37.0149 42.1025C39.2729 42.1025 41.1095 40.2658 41.1095 38.0079V31.3807C41.1095 29.1227 39.2723 27.2856 37.0149 27.2856H36.3046C34.0466 27.2856 32.21 29.1227 32.21 31.3807V38.0079C32.21 40.2658 34.0466 42.1025 36.3046 42.1025H37.0149ZM34.9443 38.0079V31.3807C34.9443 30.6304 35.5548 30.02 36.3046 30.02H37.0149C37.7647 30.02 38.3751 30.6304 38.3751 31.3807V38.0079C38.3751 38.7577 37.7647 39.3681 37.0149 39.3681H36.3046C35.5548 39.3681 34.9443 38.7582 34.9443 38.0079Z" fill="#FFAF00"/>
<path d="M55.0701 27.1195C54.4597 26.6757 53.6047 26.8108 53.1603 27.4212L44.4734 39.3675C44.029 39.9785 44.1642 40.8335 44.7751 41.2773C45.0176 41.4536 45.299 41.539 45.5778 41.539C46.0002 41.539 46.4173 41.3436 46.6849 40.9756L55.3719 29.0293C55.8162 28.4188 55.6806 27.5638 55.0701 27.1195Z" fill="#FFAF00"/>
<path d="M22.6856 21.913C23.0045 21.913 23.3249 21.8019 23.5839 21.576C26.7444 18.816 30.7984 17.2961 34.9998 17.2961C38.9305 17.2961 42.6373 18.5768 45.7199 20.9992C46.3138 21.466 47.173 21.3629 47.6398 20.7691C48.106 20.1757 48.003 19.3159 47.4096 18.8497C43.84 16.0443 39.5489 14.5618 34.9998 14.5618C30.1373 14.5618 25.444 16.3215 21.7857 19.5162C21.217 20.0129 21.1582 20.8764 21.6549 21.4452C21.9251 21.7549 22.3043 21.913 22.6856 21.913Z" fill="#FFAF00"/>
<path d="M22.434 50.4731C26.0025 53.278 30.2942 54.7605 34.8433 54.7605C37.9995 54.7605 41.0212 54.0492 43.825 52.6467C44.5 52.3092 44.7734 51.4878 44.4359 50.8123C44.0979 50.1372 43.277 49.8638 42.6014 50.2013C40.1811 51.4125 37.5707 52.0262 34.8433 52.0262C30.9132 52.0262 27.2058 50.746 24.1232 48.323C23.5299 47.8568 22.67 47.9599 22.2038 48.5532C21.737 49.1471 21.8401 50.0064 22.434 50.4731Z" fill="#FFAF00"/>
<path d="M48.4254 48.1345C48.1231 47.6817 47.557 47.4467 47.0224 47.5535C46.4553 47.6672 46.0088 48.1415 45.9335 48.7156C45.8598 49.2732 46.1493 49.8344 46.6449 50.0993C47.1426 50.3658 47.7685 50.2927 48.1931 49.9204C48.7037 49.4713 48.7945 48.699 48.4254 48.1345Z" fill="#FFAF00"/>
<path d="M46.1044 26.8583C44.3303 26.8583 42.8867 28.3014 42.8867 30.0755C42.8867 31.8496 44.3303 33.2932 46.1044 33.2932C47.878 33.2932 49.3216 31.8496 49.3216 30.0755C49.3216 28.3014 47.878 26.8583 46.1044 26.8583ZM46.1044 30.5588C45.8379 30.5588 45.6211 30.342 45.6211 30.0755C45.6211 29.809 45.8379 29.5922 46.1044 29.5922C46.3709 29.5922 46.5872 29.809 46.5872 30.0755C46.5872 30.342 46.3709 30.5588 46.1044 30.5588Z" fill="#FFAF00"/>
<path d="M50.4751 38.4078C50.4751 40.182 51.9187 41.6255 53.6923 41.6255C55.4664 41.6255 56.9099 40.182 56.9099 38.4078C56.9099 36.6337 55.4664 35.1901 53.6923 35.1901C51.9187 35.1901 50.4751 36.6337 50.4751 38.4078ZM54.1756 38.4078C54.1756 38.6743 53.9593 38.8911 53.6928 38.8911C53.4263 38.8911 53.2095 38.6743 53.2095 38.4078C53.2095 38.1413 53.4263 37.9245 53.6928 37.9245C53.9593 37.9245 54.1756 38.1413 54.1756 38.4078Z" fill="#FFAF00"/>
<path d="M17.7013 15.5113C17.9213 16.0395 18.4585 16.3802 19.03 16.3535C19.594 16.3268 20.0896 15.9412 20.2637 15.4061C20.4394 14.8656 20.2482 14.2483 19.7953 13.9038C19.3333 13.5524 18.6882 13.5321 18.2043 13.852C17.6649 14.2082 17.4577 14.9169 17.7013 15.5113Z" fill="#FFAF00"/>
</g>
<defs>
<clipPath id="clip0_1_760">
<rect width="70" height="70" fill="white"/>
</clipPath>
</defs>
</svg>
