<svg width="229" height="68" viewBox="0 0 229 68" fill="none" xmlns="http://www.w3.org/2000/svg">
<g filter="url(#filter0_d_167_1570)">
<ellipse rx="67" ry="5.5" transform="matrix(1 0 0 -1 158 52.5001)" fill="url(#paint0_linear_167_1570)"/>
<ellipse rx="67" ry="5.5" transform="matrix(1 0 0 -1 158 52.5001)" fill="url(#paint1_linear_167_1570)" fill-opacity="0.5"/>
<ellipse rx="96.5" ry="5.5" transform="matrix(1 0 0 -1 116.5 50.5001)" fill="url(#paint2_linear_167_1570)"/>
<ellipse rx="96.5" ry="5.5" transform="matrix(1 0 0 -1 116.5 50.5001)" fill="url(#paint3_linear_167_1570)" fill-opacity="0.5"/>
<ellipse rx="67" ry="5.5" transform="matrix(1 0 0 -1 114 46.5001)" fill="url(#paint4_linear_167_1570)"/>
<ellipse rx="67" ry="5.5" transform="matrix(1 0 0 -1 114 46.5001)" fill="url(#paint5_linear_167_1570)" fill-opacity="0.5"/>
<ellipse rx="67" ry="5.5" transform="matrix(1 0 0 -1 71 52.5001)" fill="url(#paint6_linear_167_1570)"/>
<ellipse rx="67" ry="5.5" transform="matrix(1 0 0 -1 71 52.5001)" fill="url(#paint7_linear_167_1570)" fill-opacity="0.5"/>
<g clip-path="url(#clip0_167_1570)">
<path d="M113.357 45.7866L113.213 45.6433C112.929 45.3587 112.929 44.8972 113.213 44.6126L127.155 30.6711L128.329 31.8452L114.388 45.7866C114.103 46.0712 113.641 46.0712 113.357 45.7866Z" fill="url(#paint8_linear_167_1570)"/>
<path d="M124.997 32.829V35.177L128.329 31.8451L127.155 30.6711L124.997 32.829Z" fill="url(#paint9_linear_167_1570)"/>
<path d="M116.598 21.6118C116.768 22.0313 117.302 22.1555 117.643 21.8583C127.364 13.391 138.507 10.483 143.511 15.4573C136.213 8.17601 124.394 8.18107 117.102 15.473C115.591 16.9836 115.598 19.1331 116.593 21.5998C116.595 21.6038 116.597 21.6078 116.598 21.6118Z" fill="url(#paint10_linear_167_1570)"/>
<path d="M143.543 15.4892C148.497 20.4737 145.632 31.5464 137.245 41.2389C136.95 41.58 137.074 42.1111 137.491 42.282C139.948 43.2882 142.079 43.346 143.527 41.8983C150.819 34.6065 150.824 22.7876 143.543 15.4892Z" fill="url(#paint11_linear_167_1570)"/>
<path d="M130.368 36.9068C130.125 37.1568 129.73 37.1727 129.465 36.9465C128.158 35.8314 126.858 34.6281 125.604 33.3963C124.337 32.1528 123.117 30.8776 121.996 29.6024C121.764 29.3385 121.778 28.9386 122.03 28.6938C131.857 19.1408 141.326 13.2717 143.527 15.4728C145.724 17.6688 139.884 27.1029 130.368 36.9068Z" fill="url(#paint12_linear_167_1570)"/>
<path d="M143.527 15.473C143.239 15.1848 142.943 14.9095 142.641 14.6441L142.382 15.0268V42.683C142.799 42.5014 143.182 42.2429 143.527 41.8983C150.824 34.6011 150.824 22.7702 143.527 15.473Z" fill="url(#paint13_linear_167_1570)"/>
<path d="M117.198 22.9109C118.125 24.7108 119.495 26.6396 121.123 28.5864C121.369 28.8799 121.814 28.9036 122.088 28.637C131.895 19.1175 141.33 13.2761 143.527 15.4728C138.48 10.4257 127.146 13.4419 117.346 22.1187C117.122 22.3175 117.06 22.6444 117.198 22.9109Z" fill="url(#paint14_linear_167_1570)"/>
<path d="M143.527 15.4728C145.718 17.6635 139.912 27.0573 130.436 36.8356C130.168 37.1128 130.195 37.5618 130.494 37.8056C132.443 39.3938 134.386 40.7517 136.196 41.6823C136.463 41.8196 136.791 41.7574 136.989 41.5319C145.583 31.7599 148.554 20.4996 143.527 15.4728Z" fill="url(#paint15_linear_167_1570)"/>
<path d="M130.368 36.9062C130.125 37.1572 129.73 37.1724 129.465 36.9463C128.158 35.8311 126.858 34.6282 125.604 33.3963C124.337 32.1526 123.117 30.8778 121.996 29.6029C121.764 29.3388 121.778 28.9385 122.03 28.6938C122.047 28.6772 122.063 28.662 122.08 28.6454C122.16 28.568 122.239 28.4912 122.319 28.4145C122.396 28.3405 122.472 28.2666 122.548 28.1933C122.683 28.0647 122.817 27.9375 122.95 27.8096C122.969 27.7916 122.989 27.7737 123.007 27.7557C123.237 27.5379 123.465 27.3222 123.693 27.1093C123.979 26.8424 124.264 26.5784 124.549 26.3184C124.644 26.232 124.738 26.1462 124.832 26.0606C124.907 25.9921 124.983 25.9237 125.058 25.8553C125.268 25.6658 125.477 25.4792 125.685 25.2932C125.704 25.2766 125.723 25.2593 125.743 25.2427C125.859 25.1383 125.977 25.0346 126.094 24.9317C126.274 24.7733 126.453 24.6165 126.633 24.4616C126.708 24.3965 126.781 24.3323 126.855 24.268C127.078 24.0757 127.3 23.8857 127.521 23.6996C127.642 23.5959 127.764 23.4936 127.886 23.3913C129.048 24.7242 130.32 26.0578 131.644 27.3568C132.95 28.6399 134.305 29.8913 135.667 31.0444C135.624 31.0969 135.58 31.1495 135.537 31.2013C135.398 31.3659 135.259 31.5318 135.117 31.6971C134.756 32.1201 134.386 32.5467 134.008 32.976C133.991 32.9961 133.973 33.0161 133.956 33.0355C133.691 33.3348 133.422 33.6355 133.149 33.9383C133.008 34.0946 132.866 34.2508 132.723 34.4077C132.471 34.6829 132.216 34.9588 131.958 35.2359C131.937 35.258 131.917 35.2802 131.896 35.3023C131.683 35.5305 131.467 35.7593 131.25 35.9888C131.127 36.1174 131.004 36.2473 130.879 36.3773C130.771 36.4893 130.664 36.6006 130.556 36.7126C130.493 36.777 130.431 36.842 130.368 36.9062Z" fill="url(#paint16_linear_167_1570)"/>
<path d="M123.564 17.4777C124.621 19.3657 126.128 21.3775 127.885 23.3914C127.764 23.493 127.642 23.596 127.52 23.6997C127.299 23.8857 127.078 24.0758 126.855 24.268C126.781 24.3324 126.707 24.3966 126.632 24.4616C126.453 24.6165 126.273 24.7734 126.093 24.9317C125.976 25.0347 125.859 25.1383 125.742 25.2428C125.723 25.2594 125.704 25.2767 125.685 25.2932C125.476 25.4792 125.268 25.6659 125.058 25.8553C124.982 25.9237 124.907 25.9922 124.831 26.0606C124.737 26.1463 124.643 26.2321 124.549 26.3185C124.264 26.5784 123.979 26.8425 123.693 27.1093C123.465 27.3223 123.236 27.538 123.006 27.7557C122.988 27.7737 122.969 27.7917 122.95 27.8097C122.816 27.9376 122.682 28.0648 122.548 28.1934C122.472 28.2666 122.395 28.3406 122.318 28.4146C122.242 28.4885 122.166 28.5632 122.089 28.6372C122.086 28.6399 122.083 28.6434 122.079 28.6455C121.803 28.9033 121.366 28.8771 121.124 28.5861C119.494 26.6399 118.125 24.7111 117.198 22.9108C117.061 22.6439 117.122 22.3177 117.346 22.1193C117.445 22.0314 117.544 21.945 117.643 21.8587C117.697 21.811 117.751 21.764 117.807 21.7169C117.883 21.6499 117.96 21.5843 118.038 21.5185C118.097 21.468 118.156 21.4168 118.216 21.3671C119.006 20.7 119.804 20.0709 120.607 19.4784C120.685 19.4203 120.764 19.3629 120.842 19.3062C120.852 19.2979 120.862 19.2903 120.873 19.2834C121.099 19.1189 121.324 18.9585 121.55 18.8009C121.558 18.7954 121.566 18.7905 121.573 18.7843C121.723 18.6799 121.873 18.5769 122.023 18.476C122.028 18.4718 122.034 18.467 122.041 18.4628C122.193 18.3598 122.345 18.2589 122.496 18.1586C122.578 18.104 122.661 18.0508 122.742 17.9968C122.897 17.8973 123.051 17.7984 123.206 17.7003C123.208 17.6989 123.21 17.6983 123.21 17.6976C123.328 17.6236 123.446 17.5502 123.564 17.4777Z" fill="url(#paint17_linear_167_1570)"/>
<path d="M136.99 41.532C136.791 41.7574 136.463 41.8196 136.197 41.682C134.386 40.7514 132.443 39.3937 130.494 37.8057C130.195 37.5616 130.168 37.113 130.437 36.8357C130.476 36.7949 130.516 36.7535 130.556 36.7127C130.663 36.6007 130.771 36.4894 130.878 36.3774C131.002 36.2481 131.126 36.1188 131.249 35.9888C131.467 35.7599 131.682 35.5311 131.895 35.3024C131.916 35.2803 131.937 35.2581 131.958 35.236C132.216 34.9594 132.471 34.6829 132.722 34.4078C132.865 34.2508 133.008 34.0946 133.149 33.9384C133.422 33.6362 133.691 33.3356 133.955 33.0355C133.973 33.0161 133.99 32.9961 134.007 32.9761C134.386 32.5474 134.756 32.1209 135.116 31.6971C135.258 31.5318 135.398 31.366 135.536 31.2014C135.58 31.1488 135.624 31.097 135.667 31.0451C137.679 32.7513 139.705 34.2432 141.605 35.3038C141.574 35.3549 141.542 35.4061 141.511 35.4573C141.414 35.6129 141.317 35.7683 141.219 35.9232C141.217 35.926 141.216 35.9274 141.215 35.9287C141.067 36.1603 140.917 36.3912 140.764 36.6228C140.761 36.627 140.758 36.6318 140.755 36.636C140.654 36.7867 140.553 36.9374 140.45 37.0888C140.285 37.33 140.116 37.572 139.943 37.8126C139.776 38.0476 139.605 38.282 139.432 38.5163C139.374 38.5945 139.316 38.6726 139.256 38.75C139.15 38.8924 139.041 39.0341 138.932 39.1766C138.794 39.3557 138.655 39.534 138.512 39.7124C138.349 39.917 138.183 40.1216 138.016 40.3263C137.764 40.6318 137.508 40.9353 137.246 41.2388C137.161 41.3364 137.076 41.4339 136.99 41.532Z" fill="url(#paint18_linear_167_1570)"/>
<path d="M123.564 17.4769C123.447 17.5495 123.329 17.6235 123.211 17.6974C123.21 17.6981 123.208 17.6988 123.206 17.7002C123.052 17.7976 122.898 17.8966 122.743 17.9967C122.661 18.0506 122.579 18.1038 122.496 18.1585C122.344 18.258 122.193 18.3596 122.042 18.4626C122.035 18.4668 122.028 18.4716 122.023 18.4758C121.873 18.5775 121.723 18.6804 121.573 18.7841C121.566 18.7903 121.558 18.7952 121.55 18.8007C121.325 18.9584 121.099 19.1187 120.874 19.2833C120.863 19.2902 120.852 19.2978 120.843 19.306C120.764 19.3627 120.686 19.4201 120.607 19.4782C119.804 20.0707 119.006 20.6999 118.216 21.367C118.157 21.4168 118.098 21.4672 118.039 21.5184C117.961 21.5834 117.884 21.6497 117.807 21.7168C117.752 21.7638 117.698 21.8108 117.643 21.8585C117.302 22.1557 116.768 22.0314 116.598 21.6117C116.597 21.6076 116.595 21.6041 116.594 21.5999C115.598 19.1332 115.591 16.9832 117.102 15.4726C118.564 14.0105 120.207 12.8414 121.96 11.9661C121.808 13.5585 122.425 15.4458 123.564 17.4769Z" fill="url(#paint19_linear_167_1570)"/>
<path d="M143.527 41.8984C142.079 43.3461 139.948 43.288 137.491 42.2821C137.074 42.1114 136.949 41.5804 137.245 41.2389C137.507 40.9354 137.764 40.6319 138.015 40.3263C138.183 40.1224 138.349 39.9177 138.512 39.7124C138.654 39.534 138.794 39.3557 138.932 39.1766C139.041 39.0349 139.149 38.8925 139.256 38.7501C139.315 38.6726 139.374 38.5945 139.431 38.5164C139.606 38.2828 139.776 38.0484 139.943 37.8127C140.116 37.5721 140.284 37.3301 140.45 37.0889C140.553 36.9375 140.654 36.7874 140.755 36.636C140.757 36.6319 140.761 36.627 140.764 36.6229C140.917 36.392 141.068 36.1611 141.214 35.9288C141.216 35.9274 141.217 35.926 141.218 35.9233C141.317 35.7678 141.414 35.6129 141.51 35.4573C141.542 35.4061 141.574 35.355 141.604 35.3038C143.625 36.4328 145.503 37.0723 147.071 36.9631C146.191 38.7446 145.01 40.4148 143.527 41.8984Z" fill="url(#paint20_linear_167_1570)"/>
<path d="M143.543 15.4897C143.539 15.4854 143.535 15.481 143.531 15.4767C144.445 16.3978 143.955 18.5823 142.382 21.5286V33.9747C146.566 26.4854 147.283 19.2528 143.543 15.4897Z" fill="url(#paint21_linear_167_1570)"/>
<path d="M143.246 15.7535C143.524 16.0311 143.767 16.3227 143.973 16.618C144.019 16.5746 144.063 16.5282 144.102 16.4758L146.141 13.7525C146.331 13.4984 146.306 13.143 146.081 12.9186C145.857 12.6942 145.501 12.6687 145.247 12.8591L142.524 14.8981C142.472 14.9374 142.425 14.9811 142.382 15.0268C142.677 15.233 142.969 15.4759 143.246 15.7535Z" fill="url(#paint22_linear_167_1570)"/>
</g>
<g clip-path="url(#clip1_167_1570)">
<path d="M183.633 29.5519C183.633 29.5519 182.893 24.5643 190.32 15.6163C190.32 15.6162 186.742 24.617 183.633 29.5519Z" fill="url(#paint23_linear_167_1570)"/>
<path d="M183.633 29.5518C186.742 24.617 190.32 15.6163 190.32 15.6163C190.32 15.6163 184.383 25.4485 183.633 29.5518Z" fill="url(#paint24_linear_167_1570)"/>
<path d="M197.583 25.5579C197.583 25.5579 200.155 28.9989 210.051 29.0707C210.051 29.0707 202.445 26.2855 197.583 25.5579Z" fill="url(#paint25_linear_167_1570)"/>
<path d="M197.583 25.5579C202.445 26.2855 210.051 29.0707 210.051 29.0707C210.051 29.0707 200.519 27.4421 197.583 25.5579Z" fill="url(#paint26_linear_167_1570)"/>
<path d="M183.84 30.2943C183.84 30.2943 184.836 33.9873 192.6 37.2308C192.6 37.2308 187.448 32.4644 183.84 30.2943Z" fill="url(#paint27_linear_167_1570)"/>
<path d="M183.84 30.2943C187.448 32.4644 192.6 37.2308 192.6 37.2308C192.6 37.2308 185.587 32.8079 183.84 30.2943Z" fill="url(#paint28_linear_167_1570)"/>
<path d="M200.312 25.3937C200.312 25.3937 204.351 23.6374 214.64 27.593C214.64 27.593 205.643 26.7739 200.312 25.3937Z" fill="url(#paint29_linear_167_1570)"/>
<path d="M200.312 25.3937C205.643 26.7739 214.64 27.593 214.64 27.593C214.64 27.593 204.107 25.0515 200.312 25.3937Z" fill="url(#paint30_linear_167_1570)"/>
<path d="M186.2 28.0416C186.2 28.0416 188.076 17.2895 196.501 14.5449C196.501 14.5449 190.877 17.8939 186.2 28.0416Z" fill="url(#paint31_linear_167_1570)"/>
<path d="M196.5 14.5449C196.493 14.5472 196.487 14.5498 196.479 14.5521C196.08 14.6929 189.916 17.0258 186.2 28.0416C190.877 17.8939 196.5 14.5449 196.5 14.5449Z" fill="url(#paint32_linear_167_1570)"/>
<path d="M188.469 27.013C188.469 27.013 193.406 18.7376 199.959 15.5105C199.959 15.5105 191.101 16.6106 188.469 27.013Z" fill="url(#paint33_linear_167_1570)"/>
<path d="M199.958 15.5105C199.958 15.5105 192.792 17.1074 188.468 27.013C188.468 27.013 193.405 18.7375 199.958 15.5105Z" fill="url(#paint34_linear_167_1570)"/>
<path d="M190.82 26.2016C190.82 26.2016 194.041 16.9116 203.106 17.5601C203.106 17.5602 196.381 18.684 190.82 26.2016Z" fill="url(#paint35_linear_167_1570)"/>
<path d="M203.107 17.5602C195.428 17.7935 190.82 26.2016 190.82 26.2016C196.382 18.684 203.107 17.5602 203.107 17.5602Z" fill="url(#paint36_linear_167_1570)"/>
<path d="M193.175 25.571C193.175 25.571 198.496 20.2701 205.632 19.1646C205.632 19.1645 197.576 17.8757 193.175 25.571Z" fill="url(#paint37_linear_167_1570)"/>
<path d="M205.633 19.1645C197.752 19.252 193.176 25.571 193.176 25.571C193.176 25.571 198.497 20.27 205.633 19.1645Z" fill="url(#paint38_linear_167_1570)"/>
<path d="M195.608 25.2445C195.608 25.2445 202.236 18.1327 208.914 21.859C208.914 21.859 201.882 20.2234 195.608 25.2445Z" fill="url(#paint39_linear_167_1570)"/>
<path d="M208.914 21.859C201.27 19.3147 195.608 25.2445 195.608 25.2445C201.882 20.2234 208.914 21.859 208.914 21.859Z" fill="url(#paint40_linear_167_1570)"/>
<path d="M198.046 25.1336C198.046 25.1336 202.655 20.337 209.77 24.397C209.77 24.397 202.59 22.8279 198.046 25.1336Z" fill="url(#paint41_linear_167_1570)"/>
<path d="M209.769 24.397C203.001 21.7004 198.046 25.1336 198.046 25.1336C202.59 22.8279 209.769 24.397 209.769 24.397Z" fill="url(#paint42_linear_167_1570)"/>
<path d="M186.278 28.8394C186.278 28.8394 191.36 34.7646 197.545 35.5875C197.545 35.5876 189.42 37.4363 186.278 28.8394Z" fill="url(#paint43_linear_167_1570)"/>
<path d="M197.545 35.5876C197.545 35.5876 190.921 36.4416 186.278 28.8394C186.278 28.8394 191.36 34.7646 197.545 35.5876Z" fill="url(#paint44_linear_167_1570)"/>
<path d="M188.386 27.7314C188.386 27.7314 191.838 36.528 200.818 34.6279C200.818 34.6279 194.112 34.4408 188.386 27.7314Z" fill="url(#paint45_linear_167_1570)"/>
<path d="M200.818 34.6279C193.19 35.4586 188.386 27.7314 188.386 27.7314C194.112 34.4407 200.818 34.6279 200.818 34.6279Z" fill="url(#paint46_linear_167_1570)"/>
<path d="M193.123 26.1607C193.123 26.1607 198.205 31.1848 205.299 31.9115C205.299 31.9115 197.174 33.631 193.123 26.1607Z" fill="url(#paint47_linear_167_1570)"/>
<path d="M205.299 31.9115C197.412 32.2436 193.123 26.1607 193.123 26.1607C193.123 26.1607 198.205 31.1847 205.299 31.9115Z" fill="url(#paint48_linear_167_1570)"/>
<path d="M194.951 25.75C194.951 25.75 201.263 33.238 208.537 29.7252C208.537 29.7253 201.07 31.1012 194.951 25.75Z" fill="url(#paint49_linear_167_1570)"/>
<path d="M208.537 29.7253C200.355 31.9989 194.951 25.7501 194.951 25.7501C201.07 31.1012 208.537 29.7253 208.537 29.7253Z" fill="url(#paint50_linear_167_1570)"/>
<path d="M190.745 26.8156C190.745 26.8156 192.527 33.4331 202.812 33.8499C202.812 33.8499 194.094 31.2685 190.745 26.8156Z" fill="url(#paint51_linear_167_1570)"/>
<path d="M202.812 33.8499C193.793 32.4566 190.745 26.8156 190.745 26.8156C194.094 31.2685 202.812 33.8499 202.812 33.8499Z" fill="url(#paint52_linear_167_1570)"/>
<path d="M200.313 25.3936C200.313 25.3936 190.44 22.9943 178.448 33.1737C178.448 33.1737 180.364 32.6309 183.266 30.6222C188.213 27.1979 194.212 25.2197 200.313 25.3936Z" fill="url(#paint53_linear_167_1570)"/>
<path d="M200.313 25.3936C189.085 24.2827 178.636 33.0159 178.451 33.1714C178.45 33.1722 178.449 33.1729 178.448 33.1736C178.448 33.1736 180.364 32.6308 183.266 30.6222C188.213 27.1979 194.212 25.2197 200.313 25.3936Z" fill="url(#paint54_linear_167_1570)"/>
<path d="M192.768 38.4975C192.768 38.4975 200.57 40.2323 204.238 36.3792C204.238 36.3792 199.495 39.2597 192.768 38.4975Z" fill="url(#paint55_linear_167_1570)"/>
<path d="M204.238 36.3792C199.377 39.9046 192.768 38.4975 192.768 38.4975C199.495 39.2597 204.238 36.3792 204.238 36.3792Z" fill="url(#paint56_linear_167_1570)"/>
<path d="M194.206 38.6546C194.206 38.6546 202.817 40.2855 206.703 35.9354C206.703 35.9354 201.605 39.2569 194.206 38.6546Z" fill="url(#paint57_linear_167_1570)"/>
<path d="M206.703 35.9355C201.499 39.9677 194.206 38.6547 194.206 38.6547C201.605 39.2569 206.703 35.9355 206.703 35.9355Z" fill="url(#paint58_linear_167_1570)"/>
<path d="M208.719 35.6689C208.179 35.9598 207.636 36.2435 207.079 36.4966C206.94 36.5602 206.802 36.6263 206.662 36.6884L206.24 36.869L206.03 36.9591L205.816 37.0431L205.39 37.211C204.816 37.421 204.24 37.6239 203.653 37.7899C203.362 37.8803 203.065 37.9512 202.771 38.0309L202.326 38.1356L202.103 38.1874L201.88 38.2331C200.688 38.4867 199.478 38.6408 198.265 38.7052C197.658 38.739 197.051 38.7455 196.444 38.7349C195.837 38.7238 195.231 38.684 194.627 38.6285C193.419 38.5124 192.222 38.301 191.045 38.0153C189.867 37.7288 188.704 37.39 187.554 37.0034C186.405 36.6159 185.271 36.1763 184.158 35.6821C183.602 35.4339 183.048 35.1762 182.503 34.9017C181.955 34.63 181.414 34.3427 180.883 34.0368L180.839 34.0971C181.311 34.4992 181.817 34.8537 182.332 35.197C182.591 35.3661 182.854 35.5295 183.119 35.6905C183.384 35.8503 183.653 36.0025 183.924 36.1522C185.011 36.7483 186.141 37.2689 187.304 37.7062C188.467 38.1436 189.666 38.4896 190.885 38.7366C191.495 38.858 192.109 38.9579 192.725 39.0397C193.341 39.1227 193.959 39.186 194.579 39.2235C195.199 39.2634 195.819 39.2871 196.44 39.2814C197.061 39.2754 197.681 39.2517 198.299 39.2002C199.535 39.0931 200.762 38.8948 201.963 38.5968L202.188 38.5416L202.412 38.4801L202.859 38.3565C203.154 38.264 203.452 38.1806 203.743 38.0776C204.331 37.8865 204.905 37.6587 205.475 37.4245L205.899 37.2385L206.11 37.1455L206.319 37.0464L206.737 36.8481C206.875 36.7801 207.011 36.7085 207.148 36.6386C207.697 36.3589 208.229 36.0491 208.756 35.7334L208.719 35.6689Z" fill="url(#paint59_linear_167_1570)"/>
<path d="M180.882 34.0369C181.414 34.3427 181.955 34.63 182.502 34.9018C183.048 35.1762 183.601 35.4339 184.157 35.6822C185.271 36.1764 186.405 36.616 187.554 37.0034C188.703 37.3901 189.867 37.7288 191.044 38.0153C192.221 38.3011 193.419 38.5124 194.627 38.6285C195.231 38.6841 195.837 38.7238 196.444 38.7349C197.05 38.7455 197.658 38.739 198.265 38.7052C199.478 38.6409 200.688 38.4868 201.879 38.2332L202.103 38.1875L202.325 38.1357L202.77 38.031C203.064 37.9512 203.361 37.8804 203.652 37.79C204.24 37.624 204.816 37.421 205.389 37.2111L205.816 37.0431L206.029 36.9591L206.24 36.869L206.662 36.6885C206.801 36.6264 206.939 36.5603 207.079 36.4967C207.636 36.2437 208.179 35.9597 208.719 35.6689C208.719 35.6689 196.31 44.2833 180.882 34.0369Z" fill="url(#paint60_linear_167_1570)"/>
<path d="M190.448 38.6713C190.448 38.6713 197.339 41.5158 203.764 40.3721C203.764 40.372 197.702 43.7584 190.448 38.6713Z" fill="url(#paint61_linear_167_1570)"/>
<path d="M203.764 40.3721C197.2 42.5713 190.448 38.6713 190.448 38.6713C190.448 38.6713 197.339 41.5158 203.764 40.3721Z" fill="url(#paint62_linear_167_1570)"/>
<path d="M193.165 39.086C193.165 39.086 200.472 40.5691 206.562 38.2254C206.562 38.2254 201.254 42.702 193.165 39.086Z" fill="url(#paint63_linear_167_1570)"/>
<path d="M206.562 38.2254C200.536 41.6317 193.165 39.086 193.165 39.086C193.165 39.086 200.472 40.5691 206.562 38.2254Z" fill="url(#paint64_linear_167_1570)"/>
<path d="M196.541 39.2587C196.541 39.2587 203.696 38.896 208.622 36.2861C208.622 36.2861 205.033 40.1295 196.541 39.2587Z" fill="url(#paint65_linear_167_1570)"/>
<path d="M208.622 36.2861C204.063 39.5693 196.541 39.2587 196.541 39.2587C196.541 39.2587 203.696 38.896 208.622 36.2861Z" fill="url(#paint66_linear_167_1570)"/>
</g>
<path d="M48.78 27.1121C48.456 31.1441 47.34 35.1401 45.396 38.7041C43.776 41.6201 41.364 44.4281 38.556 46.3361C37.152 47.3081 35.604 48.1361 33.948 48.6761C33.12 48.9281 32.184 49.2161 31.32 48.9641C30.636 48.7841 30.096 48.1721 29.808 47.4521C29.052 45.6161 29.952 43.6001 30.96 42.0521C31.932 40.5761 33.084 39.2081 34.416 37.9841C34.488 37.9481 34.56 37.8761 34.596 37.8041C34.704 38.6321 34.812 39.4601 34.884 40.3241C34.884 41.9081 34.92 43.5281 34.956 45.1481C34.956 45.3641 34.956 45.5441 34.992 45.7961C35.028 46.3721 35.712 46.7321 36.216 46.8041C36.684 46.8761 37.404 46.7681 37.368 46.1561C37.26 42.7001 37.224 39.2441 37.26 35.7881C37.728 35.4641 38.232 35.1761 38.736 34.8881C40.32 34.0601 42.012 33.4481 43.776 33.0881C44.604 32.9081 45.432 32.7641 46.296 32.6921C46.98 32.6201 46.476 31.9001 45.972 31.9721C44.1 32.1161 42.3 32.5121 40.536 33.1961C39.384 33.6641 38.304 34.1681 37.26 34.7441C37.296 29.9921 37.44 25.2401 37.62 20.5241C37.728 18.3281 37.836 16.1681 37.944 14.0081C38.988 13.1081 40.248 12.4241 41.616 12.1721C41.976 12.1001 42.336 12.1001 42.696 12.1001C42.876 12.1001 42.984 12.1001 43.164 12.1361C43.236 12.1361 43.344 12.1721 43.452 12.1721C43.488 12.1721 43.704 12.2441 43.704 12.2441C43.884 12.2801 44.064 12.3521 44.244 12.3881C44.28 12.4241 44.316 12.4241 44.352 12.4241C44.208 12.3881 44.244 12.3881 44.496 12.4961C44.532 12.5321 44.568 12.5321 44.568 12.5321C44.604 12.5321 44.604 12.5681 44.604 12.5681C44.748 12.6401 44.892 12.7121 45 12.7841C45.108 12.8201 45.18 12.8561 45.252 12.9281C45.252 12.9281 45.252 12.9281 45.288 12.9281C45.324 12.9641 45.36 13.0001 45.396 13.0361C46.008 13.5041 46.332 13.8281 46.8 14.5481C46.836 14.5841 46.872 14.6561 46.908 14.7281L46.98 14.8721C47.052 14.9441 47.088 15.0161 47.124 15.0881C47.088 15.0161 47.088 15.0161 47.124 15.1241C47.196 15.1961 47.232 15.2681 47.268 15.3761C47.448 15.7361 47.628 16.0961 47.772 16.4921C48.348 17.9681 48.636 19.4081 48.78 21.0641C48.96 23.0801 48.924 25.0961 48.78 27.1121ZM34.416 25.5281C34.272 23.4401 34.308 21.3161 34.812 19.3001C35.1 18.1121 35.532 17.0321 36.18 16.0241C35.784 19.2641 35.496 22.5041 35.28 25.7441C35.172 27.6521 35.1 29.5601 35.028 31.4681C34.776 29.4881 34.524 27.5081 34.416 25.5281ZM51.48 24.6641C51.48 22.7561 51.336 20.8481 50.904 19.0121C50.472 17.2841 49.86 15.5561 48.744 14.1521C47.592 12.6761 46.044 11.5241 44.208 11.0921C41.868 10.5521 39.492 11.3441 37.62 12.7841C37.512 12.7121 37.404 12.6761 37.332 12.6761C37.116 12.6041 36.612 12.6041 36.576 12.8921C36.54 13.2161 36.504 13.5041 36.468 13.7921C36 14.2961 35.568 14.8361 35.208 15.3761C32.868 19.0121 33.084 23.6561 33.516 27.7601C33.84 30.7121 34.164 33.6281 34.488 36.5441C33.3 37.4441 32.256 38.4881 31.356 39.6041C30.096 41.1161 28.8 42.9161 28.44 44.8961C28.08 46.6601 28.62 48.8201 30.276 49.7561C32.256 50.8721 34.704 50.1881 36.684 49.4321C40.248 48.1001 43.524 45.6881 45.9 42.7001C48.492 39.3881 50.112 35.4641 50.904 31.3241C51.3 29.1281 51.516 26.8961 51.48 24.6641ZM59.3978 47.4521C61.3418 47.4521 63.6098 46.6601 65.4098 45.6881C66.1658 45.3281 66.9938 44.8961 67.6058 44.2841C67.6778 44.2121 67.6778 44.1761 67.6778 44.1041C67.6778 43.7441 67.2458 43.5281 66.9218 43.5281C66.0218 43.7081 65.5538 44.1041 64.6898 44.5001C62.9258 45.2921 60.9458 46.0481 59.1098 46.0481C58.7138 46.0481 58.7858 46.0481 58.2098 45.9401L57.7778 45.7241C57.7778 45.6881 57.7418 45.6521 57.7058 45.6521L57.1298 44.8601C57.1298 44.8601 57.0218 44.7161 57.0218 44.6801C56.5538 43.8521 56.3378 42.9521 56.3378 42.0161C56.4458 40.4681 56.4818 39.7841 57.0578 38.1641C59.2898 37.9481 61.4858 36.4361 62.7818 34.6721C63.2138 34.0961 63.6458 33.4481 63.6818 32.7281C63.6818 32.1161 63.2498 31.5401 62.7818 31.1801C62.2058 30.7121 61.6298 30.4601 60.8738 30.4601C59.7218 30.4601 58.7858 31.1081 57.8857 31.7921C55.2578 33.8801 53.6738 37.9841 53.6738 41.4761C53.6738 42.3401 53.7817 43.2041 54.1058 44.0321C54.9697 46.3001 57.1658 47.4521 59.3978 47.4521ZM57.3457 37.3721C58.1378 35.1761 59.6498 33.1961 61.6298 32.2961C61.9538 32.1161 61.7738 32.1881 62.1698 32.0801C62.3498 32.0801 62.4218 32.4041 62.4218 32.5481C62.4218 32.9801 62.0977 33.4841 61.9178 33.7721C60.8738 35.6441 59.1818 36.6521 57.3457 37.3721ZM72.7616 43.2761C73.1576 43.2761 73.5536 43.1321 73.7336 42.7721C74.9936 39.9641 76.1456 37.1561 77.3336 34.3481C77.6216 35.5001 77.9456 36.6161 78.3776 37.7321C79.1696 39.9281 80.2136 43.1321 83.0216 43.1321C83.2736 43.1321 83.5976 43.0961 83.8856 42.9881C85.1456 42.4121 85.7216 41.1161 86.1896 39.8201C86.8736 37.7681 87.2336 35.5721 87.2336 33.4121C87.1616 31.5041 87.0896 30.2801 86.8376 28.4441C86.6576 27.0041 86.4776 25.5281 86.0096 24.1601C85.8656 23.6921 85.1096 23.3321 84.4976 23.3321C84.0656 23.3321 83.6696 23.5481 83.6696 24.0161C83.6696 25.0961 83.8856 26.2121 84.0296 27.2921C84.4616 29.9561 84.6416 32.5121 84.6416 35.2121C84.6416 35.9321 84.6416 36.6521 84.6056 37.3721C84.5696 38.3441 84.4616 39.3521 84.1736 40.2881C83.9576 40.9001 83.4896 41.6921 82.8416 41.8361C82.8056 41.8361 82.7336 41.8361 82.6976 41.8721C82.5896 41.8001 82.5896 41.8721 82.4456 41.7281C81.4016 40.3961 81.2936 39.8921 80.6096 38.0921C79.7096 35.8241 79.0256 33.4481 78.6656 31.0361C78.5936 30.5321 77.9096 30.1001 77.3336 30.1001C77.0456 30.1001 76.7576 30.2441 76.6136 30.5321L72.4736 38.9201C72.8696 34.7801 72.6896 36.6881 73.1936 32.6201C73.4096 31.1441 73.5536 30.0281 73.5536 28.6241C73.5536 28.4801 73.3016 28.3361 73.0856 28.3361C73.0136 28.3361 72.9416 28.3361 72.9056 28.4081C72.6176 28.8761 72.2936 29.3081 72.0416 29.8121C71.7896 30.3161 71.6096 30.8201 71.4296 31.3601C70.6736 33.8081 69.8456 37.0481 69.8456 39.6041C69.8456 41.1881 70.5656 42.5201 72.1136 43.1681C72.2936 43.2401 72.5456 43.2761 72.7616 43.2761ZM95.1165 47.4521C97.0605 47.4521 99.3285 46.6601 101.129 45.6881C101.885 45.3281 102.713 44.8961 103.325 44.2841C103.397 44.2121 103.397 44.1761 103.397 44.1041C103.397 43.7441 102.965 43.5281 102.641 43.5281C101.741 43.7081 101.273 44.1041 100.409 44.5001C98.6445 45.2921 96.6645 46.0481 94.8285 46.0481C94.4325 46.0481 94.5045 46.0481 93.9285 45.9401L93.4965 45.7241C93.4965 45.6881 93.4605 45.6521 93.4245 45.6521L92.8485 44.8601C92.8485 44.8601 92.7405 44.7161 92.7405 44.6801C92.2725 43.8521 92.0565 42.9521 92.0565 42.0161C92.1645 40.4681 92.2005 39.7841 92.7765 38.1641C95.0085 37.9481 97.2045 36.4361 98.5005 34.6721C98.9325 34.0961 99.3645 33.4481 99.4005 32.7281C99.4005 32.1161 98.9685 31.5401 98.5005 31.1801C97.9245 30.7121 97.3485 30.4601 96.5925 30.4601C95.4405 30.4601 94.5045 31.1081 93.6045 31.7921C90.9765 33.8801 89.3925 37.9841 89.3925 41.4761C89.3925 42.3401 89.5005 43.2041 89.8245 44.0321C90.6885 46.3001 92.8845 47.4521 95.1165 47.4521ZM93.0645 37.3721C93.8565 35.1761 95.3685 33.1961 97.3485 32.2961C97.6725 32.1161 97.4925 32.1881 97.8885 32.0801C98.0685 32.0801 98.1405 32.4041 98.1405 32.5481C98.1405 32.9801 97.8165 33.4841 97.6365 33.7721C96.5925 35.6441 94.9005 36.6521 93.0645 37.3721ZM154.916 44.3561C155.78 44.3561 156.356 43.8881 156.86 43.2401C158.588 41.0081 159.344 38.5601 159.344 35.8241C159.344 33.6281 158.984 30.9281 157.616 29.2001C156.572 27.9041 155.276 27.4001 153.692 27.3641C152.504 27.3641 151.388 27.8321 150.776 28.9121L150.74 29.0561C150.74 29.3441 151.244 29.6321 151.604 29.6321C151.784 29.6321 151.928 29.5601 152 29.4521C152.504 28.6961 153.332 28.3001 154.16 28.3001C156.464 28.3001 157.652 30.8921 157.652 33.3401C157.652 36.3641 156.176 39.7121 154.556 41.8001C154.52 41.8361 154.484 41.8721 154.484 41.9081C154.412 41.7281 154.376 41.5121 154.34 41.2601C154.088 39.9641 154.016 39.1721 154.016 37.8041C154.016 35.8961 154.232 33.7001 155.024 31.9361C155.096 31.6841 155.204 31.3961 155.384 31.2521C155.528 31.1081 155.564 31.1441 155.672 31.0361L155.852 31.0721C156.14 31.0721 156.356 30.8561 156.356 30.6401C156.356 30.1721 155.348 29.7761 154.664 29.7761C152.108 29.7761 151.424 33.9521 151.316 37.3361C151.316 38.5961 151.46 39.8561 151.676 41.0801C151.856 41.8361 152.036 42.5201 152.468 43.1321C152.972 43.8521 153.908 44.3561 154.808 44.3561H154.916ZM171.434 46.0121C172.01 46.0121 172.262 45.4001 172.262 44.8601C172.226 43.4921 172.298 43.4201 172.118 42.0521C171.686 37.1561 171.758 37.6601 171.146 33.1601C171.074 32.5481 170.858 31.9361 170.786 31.3241C170.678 30.7841 170.246 30.7121 169.742 30.6401C169.49 30.6401 169.238 30.7121 169.166 30.9281C168.95 31.6841 168.554 32.3681 168.194 33.0521C166.862 35.6081 165.962 37.1561 164.198 39.8921C164.198 35.2121 164.27 36.7241 164.45 31.8281C164.45 31.5761 164.378 31.2881 164.306 31.0361C164.198 30.5321 163.838 30.4601 163.334 30.3521C163.118 30.3521 162.938 30.4241 162.866 30.5321C162.578 30.9281 162.362 31.2881 162.254 31.7561C161.57 34.4561 161.498 35.5001 161.498 38.4521C161.498 39.4961 161.534 40.5401 161.642 41.5841C161.714 42.7721 162.686 43.6001 163.874 43.6001L164.378 43.5281C165.278 43.3121 165.71 42.4481 166.178 41.7281C167.51 39.5681 168.122 38.3441 169.166 35.8601C169.346 39.7841 169.382 40.7201 169.814 44.2481C169.886 45.1121 170.426 46.0121 171.434 46.0121ZM176.163 44.0681C176.379 44.0681 176.595 43.9961 176.739 43.8881C178.503 42.6641 178.611 40.4681 179.367 38.4521C179.763 37.3721 180.195 36.3281 180.699 35.3201C181.203 34.2401 181.851 32.6561 182.535 31.7921C182.607 31.7561 182.679 31.6841 182.715 31.6121C182.823 31.6121 182.823 31.6841 182.895 31.6841C182.895 31.7201 182.967 31.7561 183.003 31.7921C183.003 31.7921 183.615 32.2241 184.011 32.2241C184.407 32.2241 184.659 31.9001 184.659 31.5401C184.659 30.5321 183.183 30.0281 182.283 30.0281C181.311 30.1001 180.915 30.2801 180.195 30.8921C179.763 31.2881 179.475 31.8281 179.187 32.3321C178.503 33.4481 177.927 34.6361 177.423 35.8241C177.423 35.3921 177.423 34.9601 177.459 34.5281C177.459 33.2321 177.423 33.5561 177.423 32.3681C177.423 32.0441 177.315 31.7921 177.243 31.4681C177.171 30.8561 176.631 30.7481 175.983 30.6401C175.443 30.6401 175.191 31.2161 175.119 31.7921C175.011 32.7641 174.975 32.9801 174.903 33.9161C174.687 37.0841 174.543 40.1801 174.435 42.8801C174.435 43.6361 175.479 44.0681 176.163 44.0681Z" fill="black"/>
<g clip-path="url(#clip2_167_1570)">
<path d="M35.9284 14.2454C35.9284 14.2454 35.0922 17.2254 31 15.4347C31 15.4347 33.1087 11.2633 35.9284 14.2454Z" fill="url(#paint67_linear_167_1570)"/>
<path d="M31 15.4347C32.3447 14.8769 35.9284 14.2454 35.9284 14.2454C33.1087 11.2633 31 15.4347 31 15.4347Z" fill="url(#paint68_linear_167_1570)"/>
<path d="M37.7279 13.8636C37.7279 13.8636 40.0995 15.8524 36.783 18.8447C36.783 18.8447 33.8493 15.2059 37.7279 13.8636Z" fill="url(#paint69_linear_167_1570)"/>
<path d="M36.783 18.8448C36.8282 17.3897 37.7279 13.8637 37.7279 13.8637C33.8494 15.2059 36.783 18.8448 36.783 18.8448Z" fill="url(#paint70_linear_167_1570)"/>
<path d="M39.1436 14.1125C39.1436 14.1125 39.8173 17.1334 44.0004 15.5669C44.0004 15.5668 42.1207 11.2873 39.1436 14.1125Z" fill="url(#paint71_linear_167_1570)"/>
<path d="M44.0004 15.5668C42.6879 14.9371 39.1436 14.1125 39.1436 14.1125C42.1206 11.2874 44.0004 15.5668 44.0004 15.5668Z" fill="url(#paint72_linear_167_1570)"/>
<path d="M35.9287 14.2454C35.2054 13.4805 34.529 13.1864 33.9228 13.1716L33.2891 14.6614L34.4418 15.8141C34.5448 15.7739 34.6414 15.7289 34.7316 15.6799C35.6691 15.1702 35.9287 14.2454 35.9287 14.2454Z" fill="url(#paint73_linear_167_1570)"/>
<path d="M37.7281 13.8636C36.3032 14.3568 35.7978 15.1598 35.7285 15.9786L37.6656 17.9157C39.6171 15.4478 37.7281 13.8636 37.7281 13.8636Z" fill="url(#paint74_linear_167_1570)"/>
<path d="M39.1436 14.1125C39.1436 14.1125 39.8173 17.1334 44.0004 15.5669C44.0004 15.5668 42.1207 11.2873 39.1436 14.1125Z" fill="url(#paint75_linear_167_1570)"/>
<path d="M36.8006 10.8634C36.8006 10.8634 35.3289 8.10024 36.2576 7.9448C37.1862 7.78936 36.3974 7.09114 37.4177 7.26291C38.438 7.43468 37.9978 6.92196 39.1591 7.10691C40.3204 7.29185 41.4341 9.09108 40.0588 10.1225C39.1106 10.8337 37.6326 12.853 36.8006 10.8634Z" fill="url(#paint76_radial_167_1570)"/>
<path d="M36.2728 8.3378C36.2551 8.31185 36.2327 8.2894 36.2067 8.2717L36.1993 8.26429L36.1996 8.26729C36.1608 8.24266 36.115 8.22821 36.0656 8.22821C36.0306 8.22821 35.9976 8.23585 35.9674 8.24883C35.9671 8.25045 35.9667 8.2521 35.9664 8.25373C35.9575 8.29773 35.9524 8.34534 35.9508 8.39617C35.9508 8.39812 35.9506 8.40005 35.9506 8.40201C35.9499 8.42768 35.9501 8.45411 35.9511 8.48128C35.9512 8.48301 35.9512 8.48476 35.9513 8.48648C35.9536 8.54201 35.9591 8.60044 35.9677 8.66122C35.9679 8.66292 35.9682 8.66465 35.9684 8.66638C35.9817 8.75999 36.0018 8.85901 36.0272 8.96119C36.2366 9.80481 36.8003 10.8635 36.8003 10.8635C37.3589 12.1992 38.2087 11.728 38.9938 11.0589L36.2728 8.3378ZM36.2259 8.67163C36.2326 8.66615 36.2388 8.66026 36.2448 8.65414L36.2515 8.71137C36.243 8.69824 36.2344 8.68468 36.2259 8.67163Z" fill="url(#paint77_linear_167_1570)"/>
<path d="M37.6796 11.6618C37.8092 11.6594 37.9332 11.6087 38.0328 11.5258C38.2665 11.3315 38.9039 10.7635 39.2099 10.1135C39.5886 9.30892 38.8333 10.4903 38.3753 10.7777C37.9172 11.0652 38.6081 10.1719 38.5605 9.33093C38.5129 8.48992 38.0087 10.5557 37.6903 10.781C37.372 11.0063 37.6646 10.2149 37.4765 9.82976C37.2885 9.44463 37.1529 10.5513 37.1941 10.7757C37.2353 11.0001 36.773 10.2431 36.6038 10.2012C36.4345 10.1593 37.0358 11.2479 37.3147 11.5173C37.4342 11.6327 37.5669 11.6639 37.6796 11.6618Z" fill="url(#paint78_linear_167_1570)"/>
<path d="M37.1281 11.3798C37.1281 11.3798 37.0127 8.87822 35.1654 8.60883C33.3181 8.33943 34.1647 9.2246 33.7029 9.30156C33.2411 9.37854 32.279 9.22458 32.202 10.61C32.125 11.9955 37.282 13.458 37.1281 11.3798Z" fill="url(#paint79_radial_167_1570)"/>
<path d="M36.4518 12.3188C36.7939 12.2101 36.9732 11.8339 36.8544 11.4951C36.7016 11.0596 36.4597 10.4158 36.27 10.1106C35.9692 9.62681 36.2308 10.5422 36.2569 10.843C36.2831 11.1438 35.7339 10.2153 35.2108 9.90141C34.6877 9.58755 34.8184 10.0714 35.2108 10.3068C35.6031 10.5422 35.2108 10.5814 34.6353 10.3591C34.0599 10.1368 34.1515 10.5029 35.2108 10.9868C36.27 11.4707 36.3485 11.9938 36.0085 11.7976C35.6685 11.6015 35.1061 11.4969 34.8446 11.5622C34.6995 11.5985 35.3992 12.0973 36.0401 12.3158C36.1678 12.3594 36.3062 12.3635 36.4353 12.324C36.4409 12.3223 36.4464 12.3206 36.4518 12.3188Z" fill="url(#paint80_linear_167_1570)"/>
<path d="M36.7808 12.4555C36.6422 12.2613 36.4486 12.1172 36.2304 12.0331C35.7682 11.8549 34.6983 11.5486 33.5732 11.9701C32.0762 12.531 32.8506 13.2662 33.0971 13.3724C33.3435 13.4785 33.0052 13.9757 33.2444 14.5609C33.4835 15.146 34.2572 15.0238 34.5591 15.4127C34.861 15.8017 34.8099 16.1369 35.4873 16C36.1648 15.863 36.3937 16.5153 36.8867 15.2185C37.2975 14.1378 37.2262 13.079 36.7808 12.4555Z" fill="url(#paint81_radial_167_1570)"/>
<path d="M38.0468 11.3548C38.0468 11.3548 39.6652 9.68943 41.0901 10.0788C41.6024 10.278 41.5299 10.8743 41.9221 10.9833C42.3143 11.0922 42.5779 12.0032 42.1214 12.2178C41.6649 12.4324 42.2006 13.3621 41.6399 13.7153C41.0792 14.0686 36.3484 12.8051 38.0468 11.3548Z" fill="url(#paint82_radial_167_1570)"/>
<path d="M41.646 13.711L38.7197 10.7847C38.311 11.083 38.0468 11.3548 38.0468 11.3548C36.6752 12.526 39.4963 13.5753 40.9283 13.7497C40.9707 13.7549 41.0118 13.7593 41.0515 13.7629C41.0521 13.7629 41.0527 13.763 41.0532 13.763C41.0924 13.7666 41.1303 13.7693 41.1667 13.7713C41.1677 13.7714 41.1686 13.7714 41.1696 13.7715C41.2054 13.7734 41.2398 13.7746 41.2726 13.775C41.2739 13.775 41.2753 13.775 41.2766 13.775C41.3089 13.7753 41.3396 13.7749 41.3686 13.7737C41.3702 13.7736 41.3718 13.7735 41.3733 13.7735C41.3875 13.7728 41.4012 13.772 41.4146 13.771C41.4159 13.7709 41.4171 13.7708 41.4184 13.7707C41.4307 13.7698 41.4426 13.7686 41.4542 13.7673C41.4557 13.7671 41.4572 13.767 41.4587 13.7668C41.4708 13.7654 41.4824 13.7639 41.4936 13.7621C41.4955 13.7618 41.4973 13.7615 41.4992 13.7612C41.5093 13.7595 41.519 13.7577 41.5284 13.7557C41.5296 13.7555 41.5309 13.7553 41.5321 13.755C41.5422 13.7528 41.5517 13.7505 41.5608 13.7479C41.5628 13.7474 41.5647 13.7468 41.5666 13.7463C41.5749 13.7439 41.583 13.7413 41.5905 13.7386C41.5913 13.7384 41.5921 13.7381 41.5928 13.7378C41.6008 13.7349 41.6082 13.7317 41.6153 13.7285C41.617 13.7277 41.6187 13.7269 41.6203 13.7261C41.6272 13.7227 41.6339 13.7192 41.6398 13.7154C41.6398 13.7154 41.6399 13.7154 41.6399 13.7154C41.6421 13.7139 41.6439 13.7124 41.646 13.711Z" fill="url(#paint83_linear_167_1570)"/>
<path d="M37.7562 11.9752C37.7857 11.849 37.8612 11.7384 37.9631 11.6583C38.2019 11.4704 38.8907 10.9658 39.5903 10.8026C40.4563 10.6005 39.1431 11.092 38.7662 11.4798C38.3893 11.8677 39.4073 11.3789 40.2198 11.6013C41.0322 11.8237 38.9067 11.8848 38.6198 12.1489C38.3329 12.4131 39.168 12.2925 39.5053 12.5569C39.8426 12.8213 38.732 12.7225 38.5212 12.6353C38.3104 12.5481 38.954 13.1584 38.9595 13.3327C38.9651 13.507 38.0263 12.6913 37.8212 12.3623C37.7333 12.2213 37.7307 12.085 37.7562 11.9752Z" fill="url(#paint84_linear_167_1570)"/>
<path d="M37.6938 12.1875C37.6938 12.1875 39.5682 11.5821 40.6707 12.8961C41.052 13.436 40.7166 13.4846 41.061 14.0017C41.4053 14.5189 41.1029 14.9697 40.6311 15.2401C40.1594 15.5105 40.0592 16.5439 39.2276 16.364C38.396 16.184 38.3701 15.8117 37.9964 15.964C37.6227 16.1164 37.0868 16.1182 36.897 15.0594C36.7072 14.0006 36.9846 12.3885 37.6938 12.1875Z" fill="url(#paint85_radial_167_1570)"/>
<path d="M36.7403 12.3899C36.65 12.2971 36.5282 12.2413 36.3996 12.2253C36.098 12.1877 35.2477 12.1112 34.5642 12.3326C33.7182 12.6066 35.0966 12.3496 35.6196 12.4872C36.1426 12.6248 35.0184 12.7317 34.4375 13.3416C33.8565 13.9516 35.7084 12.9064 36.0905 12.9846C36.4725 13.0627 35.6951 13.3906 35.5428 13.7911C35.3905 14.1917 36.2905 13.5337 36.426 13.3502C36.5615 13.1666 36.3255 14.0216 36.4107 14.1738C36.4959 14.3259 36.8787 13.1426 36.8845 12.755C36.887 12.5889 36.8189 12.4707 36.7403 12.3899Z" fill="url(#paint86_linear_167_1570)"/>
<path d="M37.252 12.6489C37.3359 12.2999 37.6983 12.0941 38.0447 12.1883C38.4901 12.3095 39.1495 12.5045 39.4675 12.6718C39.9718 12.9371 39.0399 12.7419 38.738 12.7374C38.4362 12.7329 39.2243 13.2191 39.5749 13.7183C39.9255 14.2175 39.5093 14.0552 39.2463 13.6808C38.9834 13.3063 38.8239 13.6151 39.337 14.3201C39.7 14.8188 39.1994 14.7508 38.5893 13.8028C37.9591 12.8235 37.5055 12.7283 37.6976 13.0706C37.9135 13.4554 38.1571 13.7437 38.1106 14.0092C38.0848 14.1565 37.5485 13.6829 37.2846 13.0594C37.232 12.935 37.2179 12.7973 37.2481 12.6657C37.2493 12.6601 37.2507 12.6545 37.252 12.6489Z" fill="url(#paint87_linear_167_1570)"/>
<path d="M41.0335 13.9591C41.0308 13.9547 41.0282 13.9505 41.0256 13.9462C41.0198 13.9367 41.0142 13.9273 41.0088 13.9182C41.0061 13.9135 41.0033 13.9088 41.0007 13.9041C40.9954 13.8948 40.9905 13.8857 40.9857 13.8768C40.9838 13.8731 40.9817 13.8694 40.9798 13.8658C40.9739 13.8544 40.9684 13.8433 40.9631 13.8324C40.9606 13.827 40.9582 13.8217 40.9558 13.8165C40.9531 13.8105 40.9504 13.8046 40.9479 13.7989C40.9454 13.7931 40.943 13.7874 40.9407 13.7818C40.9386 13.7767 40.9367 13.7718 40.9348 13.7669C40.9326 13.7612 40.9303 13.7554 40.9283 13.7498V13.7497C40.8188 13.4481 40.979 13.3327 40.6706 12.8962C39.5681 11.5822 37.6937 12.1876 37.6937 12.1876C37.3875 12.2743 36.9744 12.4371 36.832 12.892L39.9956 16.0636C40.0095 16.046 40.0231 16.0281 40.0365 16.0098C40.0367 16.0095 40.0369 16.0092 40.037 16.009C40.1078 15.9121 40.1716 15.8061 40.2352 15.7031C40.2413 15.6933 40.2474 15.6835 40.2535 15.6737C40.2573 15.6676 40.2611 15.6614 40.2649 15.6553C40.2754 15.6386 40.2859 15.6221 40.2964 15.6057C40.2981 15.6031 40.2998 15.6006 40.3015 15.598C40.3119 15.5819 40.3224 15.5659 40.333 15.5503C40.3347 15.5477 40.3365 15.5452 40.3382 15.5426C40.3489 15.5269 40.3596 15.5116 40.3705 15.4965C40.3721 15.4943 40.3737 15.492 40.3753 15.4898C40.3866 15.4742 40.3981 15.459 40.4097 15.4441C40.4108 15.4427 40.412 15.4412 40.4131 15.4398C40.4257 15.4238 40.4385 15.4083 40.4516 15.3934C40.4521 15.3928 40.4526 15.3923 40.4531 15.3917C40.4658 15.3772 40.4788 15.3632 40.4921 15.3498C40.4934 15.3485 40.4947 15.3472 40.496 15.3459C40.5087 15.3332 40.5216 15.3211 40.5349 15.3095C40.5364 15.3082 40.5379 15.3069 40.5394 15.3056C40.5529 15.2941 40.5666 15.2832 40.5807 15.273C40.5819 15.2721 40.5831 15.2712 40.5843 15.2703C40.5995 15.2594 40.6151 15.2493 40.6311 15.2401C40.8669 15.1049 41.0605 14.9246 41.152 14.7135C41.1692 14.6739 41.1827 14.6332 41.1923 14.5916C41.1955 14.5777 41.1983 14.5637 41.2006 14.5496C41.2052 14.5214 41.2079 14.4927 41.2088 14.4637C41.2129 14.3185 41.1685 14.1634 41.0608 14.0018C41.0512 13.9871 41.0422 13.973 41.0335 13.9591Z" fill="url(#paint88_linear_167_1570)"/>
<path d="M34.7242 6.94165C34.7242 6.94165 36.2049 9.41987 36.2497 10.7211C36.2946 12.0223 36.5389 12.9307 37.1015 13.0021C37.664 13.0735 38.2014 12.2101 37.3375 10.5553C36.4736 8.90051 35.2623 7.25415 34.9073 6.78821C34.5522 6.32227 34.4557 6.63681 34.7242 6.94165Z" fill="url(#paint89_linear_167_1570)"/>
<path d="M34.6807 7.16542C34.9596 7.16542 35.1857 6.93934 35.1857 6.66046C35.1857 6.38157 34.9596 6.15549 34.6807 6.15549C34.4019 6.15549 34.1758 6.38157 34.1758 6.66046C34.1758 6.93934 34.4019 7.16542 34.6807 7.16542Z" fill="url(#paint90_radial_167_1570)"/>
<path d="M34.9344 7.90484C35.0728 7.90484 35.1851 7.79257 35.1851 7.65408C35.1851 7.51559 35.0728 7.40332 34.9344 7.40332C34.7959 7.40332 34.6836 7.51559 34.6836 7.65408C34.6836 7.79257 34.7959 7.90484 34.9344 7.90484Z" fill="url(#paint91_radial_167_1570)"/>
<path d="M35.6638 7.79906C35.8023 7.79906 35.9146 7.68679 35.9146 7.5483C35.9146 7.40981 35.8023 7.29755 35.6638 7.29755C35.5254 7.29755 35.4131 7.40981 35.4131 7.5483C35.4131 7.68679 35.5254 7.79906 35.6638 7.79906Z" fill="url(#paint92_radial_167_1570)"/>
<path d="M35.3572 8.60283C35.4957 8.60283 35.608 8.49057 35.608 8.35208C35.608 8.21359 35.4957 8.10132 35.3572 8.10132C35.2187 8.10132 35.1064 8.21359 35.1064 8.35208C35.1064 8.49057 35.2187 8.60283 35.3572 8.60283Z" fill="url(#paint93_radial_167_1570)"/>
<path d="M36.0652 8.72979C36.2037 8.72979 36.316 8.61752 36.316 8.47903C36.316 8.34054 36.2037 8.22827 36.0652 8.22827C35.9267 8.22827 35.8145 8.34054 35.8145 8.47903C35.8145 8.61752 35.9267 8.72979 36.0652 8.72979Z" fill="url(#paint94_radial_167_1570)"/>
</g>
</g>
<defs>
<filter id="filter0_d_167_1570" x="0" y="0.00012207" width="229" height="76" filterUnits="userSpaceOnUse" color-interpolation-filters="sRGB">
<feFlood flood-opacity="0" result="BackgroundImageFix"/>
<feColorMatrix in="SourceAlpha" type="matrix" values="0 0 0 0 0 0 0 0 0 0 0 0 0 0 0 0 0 0 127 0" result="hardAlpha"/>
<feOffset dy="4"/>
<feGaussianBlur stdDeviation="2"/>
<feColorMatrix type="matrix" values="0 0 0 0 0 0 0 0 0 0 0 0 0 0 0 0 0 0 0.25 0"/>
<feBlend mode="normal" in2="BackgroundImageFix" result="effect1_dropShadow_167_1570"/>
<feBlend mode="normal" in="SourceGraphic" in2="effect1_dropShadow_167_1570" result="shape"/>
</filter>
<linearGradient id="paint0_linear_167_1570" x1="67" y1="0" x2="67" y2="11" gradientUnits="userSpaceOnUse">
<stop stop-color="#FFD14B"/>
<stop offset="1" stop-color="#FFAF00"/>
</linearGradient>
<linearGradient id="paint1_linear_167_1570" x1="67" y1="0" x2="67" y2="11" gradientUnits="userSpaceOnUse">
<stop stop-color="white"/>
<stop offset="1" stop-color="white" stop-opacity="0"/>
</linearGradient>
<linearGradient id="paint2_linear_167_1570" x1="96.5" y1="0" x2="96.5" y2="11" gradientUnits="userSpaceOnUse">
<stop stop-color="#FFD14B"/>
<stop offset="1" stop-color="#FFAF00"/>
</linearGradient>
<linearGradient id="paint3_linear_167_1570" x1="96.5" y1="0" x2="96.5" y2="11" gradientUnits="userSpaceOnUse">
<stop stop-color="white"/>
<stop offset="1" stop-color="white" stop-opacity="0"/>
</linearGradient>
<linearGradient id="paint4_linear_167_1570" x1="67" y1="0" x2="67" y2="11" gradientUnits="userSpaceOnUse">
<stop stop-color="#FFD14B"/>
<stop offset="1" stop-color="#FFAF00"/>
</linearGradient>
<linearGradient id="paint5_linear_167_1570" x1="67" y1="0" x2="67" y2="11" gradientUnits="userSpaceOnUse">
<stop stop-color="white"/>
<stop offset="1" stop-color="white" stop-opacity="0"/>
</linearGradient>
<linearGradient id="paint6_linear_167_1570" x1="67" y1="0" x2="67" y2="11" gradientUnits="userSpaceOnUse">
<stop stop-color="#FFD14B"/>
<stop offset="1" stop-color="#FFAF00"/>
</linearGradient>
<linearGradient id="paint7_linear_167_1570" x1="67" y1="0" x2="67" y2="11" gradientUnits="userSpaceOnUse">
<stop stop-color="white"/>
<stop offset="1" stop-color="white" stop-opacity="0"/>
</linearGradient>
<linearGradient id="paint8_linear_167_1570" x1="119.927" y1="37.8995" x2="121.101" y2="39.074" gradientUnits="userSpaceOnUse">
<stop stop-color="#979797"/>
<stop offset="1"/>
</linearGradient>
<linearGradient id="paint9_linear_167_1570" x1="126.663" y1="37.2776" x2="126.663" y2="29.5963" gradientUnits="userSpaceOnUse">
<stop stop-color="#FF9111" stop-opacity="0"/>
<stop offset="1" stop-color="#F26500"/>
</linearGradient>
<linearGradient id="paint10_linear_167_1570" x1="127.634" y1="10.5749" x2="131.13" y2="22.2016" gradientUnits="userSpaceOnUse">
<stop stop-color="#FFA981"/>
<stop offset="0.428" stop-color="#FF8666"/>
<stop offset="1" stop-color="#FF5C45"/>
</linearGradient>
<linearGradient id="paint11_linear_167_1570" x1="135.313" y1="23.7185" x2="148.509" y2="36.9156" gradientUnits="userSpaceOnUse">
<stop stop-color="#FFA981"/>
<stop offset="0.428" stop-color="#FF8666"/>
<stop offset="1" stop-color="#FF5C45"/>
</linearGradient>
<linearGradient id="paint12_linear_167_1570" x1="130.426" y1="20.2983" x2="138.701" y2="28.5739" gradientUnits="userSpaceOnUse">
<stop stop-color="#FFA981"/>
<stop offset="0.428" stop-color="#FF8666"/>
<stop offset="1" stop-color="#FF5C45"/>
</linearGradient>
<linearGradient id="paint13_linear_167_1570" x1="145.604" y1="24.8774" x2="150.048" y2="18.3905" gradientUnits="userSpaceOnUse">
<stop stop-color="#FFA981" stop-opacity="0"/>
<stop offset="1" stop-color="#B82934"/>
</linearGradient>
<linearGradient id="paint14_linear_167_1570" x1="129.225" y1="17.2773" x2="136.843" y2="30.2921" gradientUnits="userSpaceOnUse">
<stop stop-color="#EFFBFF"/>
<stop offset="0.235" stop-color="#D5EBF7"/>
<stop offset="0.487" stop-color="#C2DFF1"/>
<stop offset="0.742" stop-color="#B6D7ED"/>
<stop offset="1" stop-color="#B2D5EC"/>
</linearGradient>
<linearGradient id="paint15_linear_167_1570" x1="137.858" y1="27.3313" x2="149.048" y2="36.4575" gradientUnits="userSpaceOnUse">
<stop stop-color="#EFFBFF"/>
<stop offset="0.317" stop-color="#D7ECF8"/>
<stop offset="0.747" stop-color="#BCDBEF"/>
<stop offset="1" stop-color="#B2D5EC"/>
</linearGradient>
<linearGradient id="paint16_linear_167_1570" x1="130.749" y1="28.2496" x2="124.204" y2="34.7951" gradientUnits="userSpaceOnUse">
<stop stop-color="#FFA981" stop-opacity="0"/>
<stop offset="1" stop-color="#B82934"/>
</linearGradient>
<linearGradient id="paint17_linear_167_1570" x1="122.514" y1="22.856" x2="116.931" y2="28.4394" gradientUnits="userSpaceOnUse">
<stop stop-color="#B2D5EC" stop-opacity="0"/>
<stop offset="1" stop-color="#7797B0"/>
</linearGradient>
<linearGradient id="paint18_linear_167_1570" x1="136.138" y1="36.4798" x2="130.555" y2="42.0625" gradientUnits="userSpaceOnUse">
<stop stop-color="#B2D5EC" stop-opacity="0"/>
<stop offset="1" stop-color="#7797B0"/>
</linearGradient>
<linearGradient id="paint19_linear_167_1570" x1="119.654" y1="17.1541" x2="113.108" y2="23.7003" gradientUnits="userSpaceOnUse">
<stop stop-color="#FFA981" stop-opacity="0"/>
<stop offset="1" stop-color="#B82934"/>
</linearGradient>
<linearGradient id="paint20_linear_167_1570" x1="141.832" y1="39.334" x2="135.287" y2="45.8795" gradientUnits="userSpaceOnUse">
<stop stop-color="#FFA981" stop-opacity="0"/>
<stop offset="1" stop-color="#B82934"/>
</linearGradient>
<linearGradient id="paint21_linear_167_1570" x1="144.019" y1="22.4551" x2="146.925" y2="14.5247" gradientUnits="userSpaceOnUse">
<stop stop-color="#B2D5EC" stop-opacity="0"/>
<stop offset="1" stop-color="#7797B0"/>
</linearGradient>
<linearGradient id="paint22_linear_167_1570" x1="144.106" y1="13.8487" x2="145.343" y2="15.086" gradientUnits="userSpaceOnUse">
<stop stop-color="#D7D7D7"/>
<stop offset="1"/>
</linearGradient>
<linearGradient id="paint23_linear_167_1570" x1="188.621" y1="17.1071" x2="183.74" y2="30.0944" gradientUnits="userSpaceOnUse">
<stop offset="0.003" stop-color="#FFE000"/>
<stop offset="0.142" stop-color="#DCDE00"/>
<stop offset="0.274" stop-color="#C3DD00"/>
<stop offset="0.393" stop-color="#B4DC00"/>
<stop offset="0.491" stop-color="#AFDC00"/>
<stop offset="0.715" stop-color="#AEDA00"/>
<stop offset="0.796" stop-color="#A8D300"/>
<stop offset="0.854" stop-color="#9FC800"/>
<stop offset="0.901" stop-color="#91B700"/>
<stop offset="0.941" stop-color="#80A100"/>
<stop offset="0.975" stop-color="#6B8600"/>
<stop offset="1" stop-color="#586E00"/>
</linearGradient>
<linearGradient id="paint24_linear_167_1570" x1="188.55" y1="23.1758" x2="184.778" y2="21.7579" gradientUnits="userSpaceOnUse">
<stop stop-color="#AFDC00" stop-opacity="0"/>
<stop offset="0.472" stop-color="#84A600" stop-opacity="0.472"/>
<stop offset="1" stop-color="#586E00"/>
</linearGradient>
<linearGradient id="paint25_linear_167_1570" x1="208.125" y1="29.376" x2="197.4" y2="24.9684" gradientUnits="userSpaceOnUse">
<stop offset="0.003" stop-color="#FFE000"/>
<stop offset="0.142" stop-color="#DCDE00"/>
<stop offset="0.274" stop-color="#C3DD00"/>
<stop offset="0.393" stop-color="#B4DC00"/>
<stop offset="0.491" stop-color="#AFDC00"/>
<stop offset="0.715" stop-color="#AEDA00"/>
<stop offset="0.796" stop-color="#A8D300"/>
<stop offset="0.854" stop-color="#9FC800"/>
<stop offset="0.901" stop-color="#91B700"/>
<stop offset="0.941" stop-color="#80A100"/>
<stop offset="0.975" stop-color="#6B8600"/>
<stop offset="1" stop-color="#586E00"/>
</linearGradient>
<linearGradient id="paint26_linear_167_1570" x1="204.404" y1="25.8848" x2="203.061" y2="29.3391" gradientUnits="userSpaceOnUse">
<stop stop-color="#AFDC00" stop-opacity="0"/>
<stop offset="0.472" stop-color="#84A600" stop-opacity="0.472"/>
<stop offset="1" stop-color="#586E00"/>
</linearGradient>
<linearGradient id="paint27_linear_167_1570" x1="191.017" y1="36.8195" x2="183.635" y2="30.0138" gradientUnits="userSpaceOnUse">
<stop offset="0.003" stop-color="#FFE000"/>
<stop offset="0.142" stop-color="#DCDE00"/>
<stop offset="0.274" stop-color="#C3DD00"/>
<stop offset="0.393" stop-color="#B4DC00"/>
<stop offset="0.491" stop-color="#AFDC00"/>
<stop offset="0.715" stop-color="#AEDA00"/>
<stop offset="0.796" stop-color="#A8D300"/>
<stop offset="0.854" stop-color="#9FC800"/>
<stop offset="0.901" stop-color="#91B700"/>
<stop offset="0.941" stop-color="#80A100"/>
<stop offset="0.975" stop-color="#6B8600"/>
<stop offset="1" stop-color="#586E00"/>
</linearGradient>
<linearGradient id="paint28_linear_167_1570" x1="188.96" y1="32.959" x2="187.134" y2="34.9381" gradientUnits="userSpaceOnUse">
<stop stop-color="#AFDC00" stop-opacity="0"/>
<stop offset="0.472" stop-color="#84A600" stop-opacity="0.472"/>
<stop offset="1" stop-color="#586E00"/>
</linearGradient>
<linearGradient id="paint29_linear_167_1570" x1="212.81" y1="26.405" x2="199.854" y2="26.041" gradientUnits="userSpaceOnUse">
<stop offset="0.003" stop-color="#FFE000"/>
<stop offset="0.142" stop-color="#DCDE00"/>
<stop offset="0.274" stop-color="#C3DD00"/>
<stop offset="0.393" stop-color="#B4DC00"/>
<stop offset="0.491" stop-color="#AFDC00"/>
<stop offset="0.715" stop-color="#AEDA00"/>
<stop offset="0.796" stop-color="#A8D300"/>
<stop offset="0.854" stop-color="#9FC800"/>
<stop offset="0.901" stop-color="#91B700"/>
<stop offset="0.941" stop-color="#80A100"/>
<stop offset="0.975" stop-color="#6B8600"/>
<stop offset="1" stop-color="#586E00"/>
</linearGradient>
<linearGradient id="paint30_linear_167_1570" x1="207.416" y1="28.6181" x2="207.554" y2="23.6865" gradientUnits="userSpaceOnUse">
<stop stop-color="#AFDC00" stop-opacity="0"/>
<stop offset="0.472" stop-color="#84A600" stop-opacity="0.472"/>
<stop offset="1" stop-color="#586E00"/>
</linearGradient>
<linearGradient id="paint31_linear_167_1570" x1="193.186" y1="16.6471" x2="186.099" y2="31.6606" gradientUnits="userSpaceOnUse">
<stop offset="0.003" stop-color="#FFE000"/>
<stop offset="0.142" stop-color="#DCDE00"/>
<stop offset="0.274" stop-color="#C3DD00"/>
<stop offset="0.393" stop-color="#B4DC00"/>
<stop offset="0.491" stop-color="#AFDC00"/>
<stop offset="0.556" stop-color="#A1CA00"/>
<stop offset="0.759" stop-color="#7A9900"/>
<stop offset="0.914" stop-color="#617A00"/>
<stop offset="1" stop-color="#586E00"/>
</linearGradient>
<linearGradient id="paint32_linear_167_1570" x1="191.19" y1="21.1662" x2="188.865" y2="19.306" gradientUnits="userSpaceOnUse">
<stop stop-color="#AFDC00" stop-opacity="0"/>
<stop offset="0.472" stop-color="#84A600" stop-opacity="0.472"/>
<stop offset="1" stop-color="#586E00"/>
</linearGradient>
<linearGradient id="paint33_linear_167_1570" x1="196.977" y1="16.1796" x2="188.193" y2="29.3261" gradientUnits="userSpaceOnUse">
<stop offset="0.003" stop-color="#FFE000"/>
<stop offset="0.142" stop-color="#DCDE00"/>
<stop offset="0.274" stop-color="#C3DD00"/>
<stop offset="0.393" stop-color="#B4DC00"/>
<stop offset="0.491" stop-color="#AFDC00"/>
<stop offset="0.556" stop-color="#A1CA00"/>
<stop offset="0.759" stop-color="#7A9900"/>
<stop offset="0.914" stop-color="#617A00"/>
<stop offset="1" stop-color="#586E00"/>
</linearGradient>
<linearGradient id="paint34_linear_167_1570" x1="194.966" y1="21.8505" x2="191.16" y2="18.8758" gradientUnits="userSpaceOnUse">
<stop stop-color="#AFDC00" stop-opacity="0"/>
<stop offset="0.472" stop-color="#84A600" stop-opacity="0.472"/>
<stop offset="1" stop-color="#586E00"/>
</linearGradient>
<linearGradient id="paint35_linear_167_1570" x1="200.739" y1="16.8601" x2="191.298" y2="27.6151" gradientUnits="userSpaceOnUse">
<stop offset="0.003" stop-color="#FFE000"/>
<stop offset="0.142" stop-color="#DCDE00"/>
<stop offset="0.274" stop-color="#C3DD00"/>
<stop offset="0.393" stop-color="#B4DC00"/>
<stop offset="0.491" stop-color="#AFDC00"/>
<stop offset="0.556" stop-color="#A1CA00"/>
<stop offset="0.759" stop-color="#7A9900"/>
<stop offset="0.914" stop-color="#617A00"/>
<stop offset="1" stop-color="#586E00"/>
</linearGradient>
<linearGradient id="paint36_linear_167_1570" x1="198.643" y1="23.1946" x2="192.486" y2="18.3813" gradientUnits="userSpaceOnUse">
<stop stop-color="#AFDC00" stop-opacity="0"/>
<stop offset="0.472" stop-color="#84A600" stop-opacity="0.472"/>
<stop offset="1" stop-color="#586E00"/>
</linearGradient>
<linearGradient id="paint37_linear_167_1570" x1="204.713" y1="15.9564" x2="193.41" y2="29.1903" gradientUnits="userSpaceOnUse">
<stop offset="0.003" stop-color="#FFE000"/>
<stop offset="0.142" stop-color="#DCDE00"/>
<stop offset="0.274" stop-color="#C3DD00"/>
<stop offset="0.393" stop-color="#B4DC00"/>
<stop offset="0.491" stop-color="#AFDC00"/>
<stop offset="0.556" stop-color="#A1CA00"/>
<stop offset="0.759" stop-color="#7A9900"/>
<stop offset="0.914" stop-color="#617A00"/>
<stop offset="1" stop-color="#586E00"/>
</linearGradient>
<linearGradient id="paint38_linear_167_1570" x1="201.669" y1="24.1383" x2="193.708" y2="17.9149" gradientUnits="userSpaceOnUse">
<stop stop-color="#AFDC00" stop-opacity="0"/>
<stop offset="0.472" stop-color="#84A600" stop-opacity="0.472"/>
<stop offset="1" stop-color="#586E00"/>
</linearGradient>
<linearGradient id="paint39_linear_167_1570" x1="207.311" y1="18.8043" x2="195.892" y2="29.5142" gradientUnits="userSpaceOnUse">
<stop offset="0.003" stop-color="#FFE000"/>
<stop offset="0.142" stop-color="#DCDE00"/>
<stop offset="0.274" stop-color="#C3DD00"/>
<stop offset="0.393" stop-color="#B4DC00"/>
<stop offset="0.491" stop-color="#AFDC00"/>
<stop offset="0.556" stop-color="#A1CA00"/>
<stop offset="0.759" stop-color="#7A9900"/>
<stop offset="0.914" stop-color="#617A00"/>
<stop offset="1" stop-color="#586E00"/>
</linearGradient>
<linearGradient id="paint40_linear_167_1570" x1="205.501" y1="26.0855" x2="194.113" y2="17.1827" gradientUnits="userSpaceOnUse">
<stop stop-color="#AFDC00" stop-opacity="0"/>
<stop offset="0.472" stop-color="#84A600" stop-opacity="0.472"/>
<stop offset="1" stop-color="#586E00"/>
</linearGradient>
<linearGradient id="paint41_linear_167_1570" x1="206.718" y1="23.0774" x2="196.392" y2="28.7257" gradientUnits="userSpaceOnUse">
<stop offset="0.003" stop-color="#FFE000"/>
<stop offset="0.142" stop-color="#DCDE00"/>
<stop offset="0.274" stop-color="#C3DD00"/>
<stop offset="0.393" stop-color="#B4DC00"/>
<stop offset="0.491" stop-color="#AFDC00"/>
<stop offset="0.556" stop-color="#A1CA00"/>
<stop offset="0.759" stop-color="#7A9900"/>
<stop offset="0.914" stop-color="#617A00"/>
<stop offset="1" stop-color="#586E00"/>
</linearGradient>
<linearGradient id="paint42_linear_167_1570" x1="207.297" y1="27.4153" x2="195.386" y2="18.104" gradientUnits="userSpaceOnUse">
<stop stop-color="#AFDC00" stop-opacity="0"/>
<stop offset="0.472" stop-color="#84A600" stop-opacity="0.472"/>
<stop offset="1" stop-color="#586E00"/>
</linearGradient>
<linearGradient id="paint43_linear_167_1570" x1="194.798" y1="35.8702" x2="185.703" y2="27.0419" gradientUnits="userSpaceOnUse">
<stop offset="0.003" stop-color="#FFE000"/>
<stop offset="0.142" stop-color="#DCDE00"/>
<stop offset="0.274" stop-color="#C3DD00"/>
<stop offset="0.393" stop-color="#B4DC00"/>
<stop offset="0.491" stop-color="#AFDC00"/>
<stop offset="0.556" stop-color="#A1CA00"/>
<stop offset="0.759" stop-color="#7A9900"/>
<stop offset="0.914" stop-color="#617A00"/>
<stop offset="1" stop-color="#586E00"/>
</linearGradient>
<linearGradient id="paint44_linear_167_1570" x1="192.547" y1="31.452" x2="189.304" y2="35.3348" gradientUnits="userSpaceOnUse">
<stop stop-color="#AFDC00" stop-opacity="0"/>
<stop offset="0.472" stop-color="#84A600" stop-opacity="0.472"/>
<stop offset="1" stop-color="#586E00"/>
</linearGradient>
<linearGradient id="paint45_linear_167_1570" x1="198.489" y1="35.6385" x2="188.803" y2="26.2876" gradientUnits="userSpaceOnUse">
<stop offset="0.003" stop-color="#FFE000"/>
<stop offset="0.142" stop-color="#DCDE00"/>
<stop offset="0.274" stop-color="#C3DD00"/>
<stop offset="0.393" stop-color="#B4DC00"/>
<stop offset="0.491" stop-color="#AFDC00"/>
<stop offset="0.556" stop-color="#A1CA00"/>
<stop offset="0.759" stop-color="#7A9900"/>
<stop offset="0.914" stop-color="#617A00"/>
<stop offset="1" stop-color="#586E00"/>
</linearGradient>
<linearGradient id="paint46_linear_167_1570" x1="196.2" y1="29.7021" x2="190.299" y2="35.1565" gradientUnits="userSpaceOnUse">
<stop stop-color="#AFDC00" stop-opacity="0"/>
<stop offset="0.472" stop-color="#84A600" stop-opacity="0.472"/>
<stop offset="1" stop-color="#586E00"/>
</linearGradient>
<linearGradient id="paint47_linear_167_1570" x1="204.248" y1="35.119" x2="193.489" y2="22.5943" gradientUnits="userSpaceOnUse">
<stop offset="0.003" stop-color="#FFE000"/>
<stop offset="0.142" stop-color="#DCDE00"/>
<stop offset="0.274" stop-color="#C3DD00"/>
<stop offset="0.393" stop-color="#B4DC00"/>
<stop offset="0.491" stop-color="#AFDC00"/>
<stop offset="0.556" stop-color="#A1CA00"/>
<stop offset="0.759" stop-color="#7A9900"/>
<stop offset="0.914" stop-color="#617A00"/>
<stop offset="1" stop-color="#586E00"/>
</linearGradient>
<linearGradient id="paint48_linear_167_1570" x1="201.527" y1="27.2141" x2="193.38" y2="33.6216" gradientUnits="userSpaceOnUse">
<stop stop-color="#AFDC00" stop-opacity="0"/>
<stop offset="0.472" stop-color="#84A600" stop-opacity="0.472"/>
<stop offset="1" stop-color="#586E00"/>
</linearGradient>
<linearGradient id="paint49_linear_167_1570" x1="206.581" y1="32.8627" x2="195.649" y2="21.2953" gradientUnits="userSpaceOnUse">
<stop offset="0.003" stop-color="#FFE000"/>
<stop offset="0.142" stop-color="#DCDE00"/>
<stop offset="0.274" stop-color="#C3DD00"/>
<stop offset="0.393" stop-color="#B4DC00"/>
<stop offset="0.491" stop-color="#AFDC00"/>
<stop offset="0.556" stop-color="#A1CA00"/>
<stop offset="0.759" stop-color="#7A9900"/>
<stop offset="0.914" stop-color="#617A00"/>
<stop offset="1" stop-color="#586E00"/>
</linearGradient>
<linearGradient id="paint50_linear_167_1570" x1="205.347" y1="25.2551" x2="192.684" y2="33.9792" gradientUnits="userSpaceOnUse">
<stop stop-color="#AFDC00" stop-opacity="0"/>
<stop offset="0.472" stop-color="#84A600" stop-opacity="0.472"/>
<stop offset="1" stop-color="#586E00"/>
</linearGradient>
<linearGradient id="paint51_linear_167_1570" x1="198.542" y1="33.5984" x2="191.997" y2="21.9823" gradientUnits="userSpaceOnUse">
<stop offset="0.003" stop-color="#FFE000"/>
<stop offset="0.142" stop-color="#DCDE00"/>
<stop offset="0.274" stop-color="#C3DD00"/>
<stop offset="0.393" stop-color="#B4DC00"/>
<stop offset="0.491" stop-color="#AFDC00"/>
<stop offset="0.556" stop-color="#A1CA00"/>
<stop offset="0.759" stop-color="#7A9900"/>
<stop offset="0.914" stop-color="#617A00"/>
<stop offset="1" stop-color="#586E00"/>
</linearGradient>
<linearGradient id="paint52_linear_167_1570" x1="202.259" y1="29.7475" x2="183" y2="31.8045" gradientUnits="userSpaceOnUse">
<stop stop-color="#AFDC00" stop-opacity="0"/>
<stop offset="0.472" stop-color="#84A600" stop-opacity="0.472"/>
<stop offset="1" stop-color="#586E00"/>
</linearGradient>
<linearGradient id="paint53_linear_167_1570" x1="206.331" y1="27.9524" x2="178.978" y2="29.7231" gradientUnits="userSpaceOnUse">
<stop offset="0.003" stop-color="#FFE000"/>
<stop offset="0.142" stop-color="#DCDE00"/>
<stop offset="0.274" stop-color="#C3DD00"/>
<stop offset="0.393" stop-color="#B4DC00"/>
<stop offset="0.491" stop-color="#AFDC00"/>
<stop offset="0.715" stop-color="#AEDA00"/>
<stop offset="0.796" stop-color="#A8D300"/>
<stop offset="0.854" stop-color="#9FC800"/>
<stop offset="0.901" stop-color="#91B700"/>
<stop offset="0.941" stop-color="#80A100"/>
<stop offset="0.975" stop-color="#6B8600"/>
<stop offset="1" stop-color="#586E00"/>
</linearGradient>
<linearGradient id="paint54_linear_167_1570" x1="194.101" y1="35.1353" x2="182.903" y2="21.2559" gradientUnits="userSpaceOnUse">
<stop stop-color="#AFDC00" stop-opacity="0"/>
<stop offset="0.472" stop-color="#84A600" stop-opacity="0.472"/>
<stop offset="1" stop-color="#586E00"/>
</linearGradient>
<linearGradient id="paint55_linear_167_1570" x1="204.362" y1="39.0164" x2="191.128" y2="35.4522" gradientUnits="userSpaceOnUse">
<stop offset="0.003" stop-color="#FFE000"/>
<stop offset="0.142" stop-color="#DCDE00"/>
<stop offset="0.274" stop-color="#C3DD00"/>
<stop offset="0.393" stop-color="#B4DC00"/>
<stop offset="0.491" stop-color="#AFDC00"/>
<stop offset="0.556" stop-color="#A1CA00"/>
<stop offset="0.759" stop-color="#7A9900"/>
<stop offset="0.914" stop-color="#617A00"/>
<stop offset="1" stop-color="#586E00"/>
</linearGradient>
<linearGradient id="paint56_linear_167_1570" x1="199.808" y1="34.4903" x2="195.219" y2="44.8498" gradientUnits="userSpaceOnUse">
<stop stop-color="#AFDC00" stop-opacity="0"/>
<stop offset="0.472" stop-color="#84A600" stop-opacity="0.472"/>
<stop offset="1" stop-color="#586E00"/>
</linearGradient>
<linearGradient id="paint57_linear_167_1570" x1="206.931" y1="38.8215" x2="192.303" y2="35.3738" gradientUnits="userSpaceOnUse">
<stop offset="0.003" stop-color="#FFE000"/>
<stop offset="0.142" stop-color="#DCDE00"/>
<stop offset="0.274" stop-color="#C3DD00"/>
<stop offset="0.393" stop-color="#B4DC00"/>
<stop offset="0.491" stop-color="#AFDC00"/>
<stop offset="0.556" stop-color="#A1CA00"/>
<stop offset="0.759" stop-color="#7A9900"/>
<stop offset="0.914" stop-color="#617A00"/>
<stop offset="1" stop-color="#586E00"/>
</linearGradient>
<linearGradient id="paint58_linear_167_1570" x1="201.783" y1="34.0186" x2="197.113" y2="45.5313" gradientUnits="userSpaceOnUse">
<stop stop-color="#AFDC00" stop-opacity="0"/>
<stop offset="0.472" stop-color="#84A600" stop-opacity="0.472"/>
<stop offset="1" stop-color="#586E00"/>
</linearGradient>
<linearGradient id="paint59_linear_167_1570" x1="189.369" y1="41.5286" x2="200.101" y2="28.4474" gradientUnits="userSpaceOnUse">
<stop stop-color="#586E00"/>
<stop offset="0.025" stop-color="#6B8600"/>
<stop offset="0.059" stop-color="#80A100"/>
<stop offset="0.099" stop-color="#91B700"/>
<stop offset="0.146" stop-color="#9FC800"/>
<stop offset="0.204" stop-color="#A8D300"/>
<stop offset="0.285" stop-color="#AEDA00"/>
<stop offset="0.509" stop-color="#AFDC00"/>
<stop offset="0.607" stop-color="#B4DC00"/>
<stop offset="0.727" stop-color="#C3DD00"/>
<stop offset="0.858" stop-color="#DCDE00"/>
<stop offset="0.998" stop-color="#FFE000"/>
</linearGradient>
<linearGradient id="paint60_linear_167_1570" x1="194.586" y1="32.6843" x2="195.535" y2="42.2994" gradientUnits="userSpaceOnUse">
<stop stop-color="#AFDC00" stop-opacity="0"/>
<stop offset="0.472" stop-color="#84A600" stop-opacity="0.472"/>
<stop offset="1" stop-color="#586E00"/>
</linearGradient>
<linearGradient id="paint61_linear_167_1570" x1="204.503" y1="43.1033" x2="188.915" y2="35.8746" gradientUnits="userSpaceOnUse">
<stop offset="0.003" stop-color="#FFE000"/>
<stop offset="0.142" stop-color="#DCDE00"/>
<stop offset="0.274" stop-color="#C3DD00"/>
<stop offset="0.393" stop-color="#B4DC00"/>
<stop offset="0.491" stop-color="#AFDC00"/>
<stop offset="0.556" stop-color="#A1CA00"/>
<stop offset="0.759" stop-color="#7A9900"/>
<stop offset="0.914" stop-color="#617A00"/>
<stop offset="1" stop-color="#586E00"/>
</linearGradient>
<linearGradient id="paint62_linear_167_1570" x1="198.143" y1="37.5157" x2="194.491" y2="44.5727" gradientUnits="userSpaceOnUse">
<stop stop-color="#AFDC00" stop-opacity="0"/>
<stop offset="0.472" stop-color="#84A600" stop-opacity="0.472"/>
<stop offset="1" stop-color="#586E00"/>
</linearGradient>
<linearGradient id="paint63_linear_167_1570" x1="207.806" y1="40.7667" x2="191.129" y2="36.6309" gradientUnits="userSpaceOnUse">
<stop offset="0.003" stop-color="#FFE000"/>
<stop offset="0.142" stop-color="#DCDE00"/>
<stop offset="0.274" stop-color="#C3DD00"/>
<stop offset="0.393" stop-color="#B4DC00"/>
<stop offset="0.491" stop-color="#AFDC00"/>
<stop offset="0.556" stop-color="#A1CA00"/>
<stop offset="0.759" stop-color="#7A9900"/>
<stop offset="0.914" stop-color="#617A00"/>
<stop offset="1" stop-color="#586E00"/>
</linearGradient>
<linearGradient id="paint64_linear_167_1570" x1="200.501" y1="36.4893" x2="198.257" y2="44.1121" gradientUnits="userSpaceOnUse">
<stop stop-color="#AFDC00" stop-opacity="0"/>
<stop offset="0.472" stop-color="#84A600" stop-opacity="0.472"/>
<stop offset="1" stop-color="#586E00"/>
</linearGradient>
<linearGradient id="paint65_linear_167_1570" x1="210.413" y1="37.559" x2="194.049" y2="38.271" gradientUnits="userSpaceOnUse">
<stop offset="0.003" stop-color="#FFE000"/>
<stop offset="0.142" stop-color="#DCDE00"/>
<stop offset="0.274" stop-color="#C3DD00"/>
<stop offset="0.393" stop-color="#B4DC00"/>
<stop offset="0.491" stop-color="#AFDC00"/>
<stop offset="0.556" stop-color="#A1CA00"/>
<stop offset="0.759" stop-color="#7A9900"/>
<stop offset="0.914" stop-color="#617A00"/>
<stop offset="1" stop-color="#586E00"/>
</linearGradient>
<linearGradient id="paint66_linear_167_1570" x1="202.581" y1="36.3169" x2="202.582" y2="41.4451" gradientUnits="userSpaceOnUse">
<stop stop-color="#AFDC00" stop-opacity="0"/>
<stop offset="0.472" stop-color="#84A600" stop-opacity="0.472"/>
<stop offset="1" stop-color="#586E00"/>
</linearGradient>
<linearGradient id="paint67_linear_167_1570" x1="30.104" y1="14.8132" x2="37.8391" y2="14.3228" gradientUnits="userSpaceOnUse">
<stop offset="0.003" stop-color="#FFE000"/>
<stop offset="0.018" stop-color="#FCE000"/>
<stop offset="0.319" stop-color="#C5DD00"/>
<stop offset="0.464" stop-color="#AFDC00"/>
<stop offset="0.55" stop-color="#A7D200"/>
<stop offset="0.695" stop-color="#93B800"/>
<stop offset="0.879" stop-color="#718E00"/>
<stop offset="1" stop-color="#586E00"/>
</linearGradient>
<linearGradient id="paint68_linear_167_1570" x1="32.761" y1="13.4804" x2="34.0637" y2="15.9995" gradientUnits="userSpaceOnUse">
<stop stop-color="#AFDC00" stop-opacity="0"/>
<stop offset="0.472" stop-color="#84A600" stop-opacity="0.472"/>
<stop offset="1" stop-color="#586E00"/>
</linearGradient>
<linearGradient id="paint69_linear_167_1570" x1="35.8474" y1="19.4051" x2="38.585" y2="12.1539" gradientUnits="userSpaceOnUse">
<stop offset="0.003" stop-color="#FFE000"/>
<stop offset="0.018" stop-color="#FCE000"/>
<stop offset="0.319" stop-color="#C5DD00"/>
<stop offset="0.464" stop-color="#AFDC00"/>
<stop offset="0.55" stop-color="#A7D200"/>
<stop offset="0.695" stop-color="#93B800"/>
<stop offset="0.879" stop-color="#718E00"/>
<stop offset="1" stop-color="#586E00"/>
</linearGradient>
<linearGradient id="paint70_linear_167_1570" x1="35.7263" y1="16.4353" x2="38.5585" y2="16.2852" gradientUnits="userSpaceOnUse">
<stop stop-color="#AFDC00" stop-opacity="0"/>
<stop offset="0.472" stop-color="#84A600" stop-opacity="0.472"/>
<stop offset="1" stop-color="#586E00"/>
</linearGradient>
<linearGradient id="paint71_linear_167_1570" x1="44.929" y1="14.9948" x2="37.2316" y2="14.0863" gradientUnits="userSpaceOnUse">
<stop offset="0.003" stop-color="#FFE000"/>
<stop offset="0.018" stop-color="#FCE000"/>
<stop offset="0.319" stop-color="#C5DD00"/>
<stop offset="0.464" stop-color="#AFDC00"/>
<stop offset="0.55" stop-color="#A7D200"/>
<stop offset="0.695" stop-color="#93B800"/>
<stop offset="0.879" stop-color="#718E00"/>
<stop offset="1" stop-color="#586E00"/>
</linearGradient>
<linearGradient id="paint72_linear_167_1570" x1="42.3479" y1="13.5195" x2="40.9105" y2="15.9645" gradientUnits="userSpaceOnUse">
<stop stop-color="#AFDC00" stop-opacity="0"/>
<stop offset="0.472" stop-color="#84A600" stop-opacity="0.472"/>
<stop offset="1" stop-color="#586E00"/>
</linearGradient>
<linearGradient id="paint73_linear_167_1570" x1="35.8455" y1="17.1672" x2="34.1879" y2="13.5298" gradientUnits="userSpaceOnUse">
<stop stop-color="#AFDC00" stop-opacity="0"/>
<stop offset="0.472" stop-color="#84A600" stop-opacity="0.472"/>
<stop offset="1" stop-color="#586E00"/>
</linearGradient>
<linearGradient id="paint74_linear_167_1570" x1="39.3263" y1="17.5171" x2="36.2507" y2="14.4415" gradientUnits="userSpaceOnUse">
<stop stop-color="#AFDC00" stop-opacity="0"/>
<stop offset="0.472" stop-color="#84A600" stop-opacity="0.472"/>
<stop offset="1" stop-color="#586E00"/>
</linearGradient>
<linearGradient id="paint75_linear_167_1570" x1="42.4585" y1="15.5098" x2="40.6962" y2="14.0742" gradientUnits="userSpaceOnUse">
<stop stop-color="#AFDC00" stop-opacity="0"/>
<stop offset="0.472" stop-color="#84A600" stop-opacity="0.472"/>
<stop offset="1" stop-color="#586E00"/>
</linearGradient>
<radialGradient id="paint76_radial_167_1570" cx="0" cy="0" r="1" gradientUnits="userSpaceOnUse" gradientTransform="translate(37.0447 14.1807) rotate(-12.0812) scale(6.66052 6.66091)">
<stop stop-color="#FF5C45"/>
<stop offset="0.29" stop-color="#FF5F47"/>
<stop offset="0.498" stop-color="#FF684E"/>
<stop offset="0.681" stop-color="#FF785B"/>
<stop offset="0.847" stop-color="#FF8E6C"/>
<stop offset="0.998" stop-color="#FFA981"/>
</radialGradient>
<linearGradient id="paint77_linear_167_1570" x1="39.8844" y1="9.97255" x2="35.725" y2="9.97255" gradientUnits="userSpaceOnUse">
<stop stop-color="#FFA981" stop-opacity="0"/>
<stop offset="1" stop-color="#B82934"/>
</linearGradient>
<linearGradient id="paint78_linear_167_1570" x1="38.2424" y1="8.35692" x2="37.5575" y2="12.2127" gradientUnits="userSpaceOnUse">
<stop stop-color="#FFA981" stop-opacity="0"/>
<stop offset="1" stop-color="#B82934"/>
</linearGradient>
<radialGradient id="paint79_radial_167_1570" cx="0" cy="0" r="1" gradientUnits="userSpaceOnUse" gradientTransform="translate(39.4636 13.24) scale(6.8274 6.8274)">
<stop stop-color="#FF5C45"/>
<stop offset="0.29" stop-color="#FF5F47"/>
<stop offset="0.498" stop-color="#FF684E"/>
<stop offset="0.681" stop-color="#FF785B"/>
<stop offset="0.847" stop-color="#FF8E6C"/>
<stop offset="0.998" stop-color="#FFA981"/>
</radialGradient>
<linearGradient id="paint80_linear_167_1570" x1="33.8727" y1="9.08288" x2="37.6658" y2="13.0743" gradientUnits="userSpaceOnUse">
<stop stop-color="#FFA981" stop-opacity="0"/>
<stop offset="1" stop-color="#B82934"/>
</linearGradient>
<radialGradient id="paint81_radial_167_1570" cx="0" cy="0" r="1" gradientUnits="userSpaceOnUse" gradientTransform="translate(39.719 9.16137) rotate(8.65574) scale(7.08039 7.39718)">
<stop stop-color="#FF5C45"/>
<stop offset="0.29" stop-color="#FF5F47"/>
<stop offset="0.498" stop-color="#FF684E"/>
<stop offset="0.681" stop-color="#FF785B"/>
<stop offset="0.847" stop-color="#FF8E6C"/>
<stop offset="0.998" stop-color="#FFA981"/>
</radialGradient>
<radialGradient id="paint82_radial_167_1570" cx="0" cy="0" r="1" gradientUnits="userSpaceOnUse" gradientTransform="translate(33.9497 12.0357) rotate(-12.1735) scale(6.34532 7.3281)">
<stop stop-color="#FF5C45"/>
<stop offset="0.29" stop-color="#FF5F47"/>
<stop offset="0.498" stop-color="#FF684E"/>
<stop offset="0.681" stop-color="#FF785B"/>
<stop offset="0.847" stop-color="#FF8E6C"/>
<stop offset="0.998" stop-color="#FFA981"/>
</radialGradient>
<linearGradient id="paint83_linear_167_1570" x1="40.4719" y1="13.0809" x2="37.302" y2="11.0318" gradientUnits="userSpaceOnUse">
<stop stop-color="#FFA981" stop-opacity="0"/>
<stop offset="1" stop-color="#B82934"/>
</linearGradient>
<linearGradient id="paint84_linear_167_1570" x1="41.1057" y1="12.1161" x2="37.1915" y2="11.9794" gradientUnits="userSpaceOnUse">
<stop stop-color="#FFA981" stop-opacity="0"/>
<stop offset="1" stop-color="#B82934"/>
</linearGradient>
<radialGradient id="paint85_radial_167_1570" cx="0" cy="0" r="1" gradientUnits="userSpaceOnUse" gradientTransform="translate(37.1059 8.41099) rotate(-13.4327) scale(6.41118 6.41116)">
<stop stop-color="#FF5C45"/>
<stop offset="0.29" stop-color="#FF5F47"/>
<stop offset="0.498" stop-color="#FF684E"/>
<stop offset="0.681" stop-color="#FF785B"/>
<stop offset="0.847" stop-color="#FF8E6C"/>
<stop offset="0.998" stop-color="#FFA981"/>
</radialGradient>
<linearGradient id="paint86_linear_167_1570" x1="33.9435" y1="14.2403" x2="37.2251" y2="12.1027" gradientUnits="userSpaceOnUse">
<stop stop-color="#FFA981" stop-opacity="0"/>
<stop offset="1" stop-color="#B82934"/>
</linearGradient>
<linearGradient id="paint87_linear_167_1570" x1="40.7029" y1="14.9498" x2="36.4451" y2="11.4495" gradientUnits="userSpaceOnUse">
<stop stop-color="#FFA981" stop-opacity="0"/>
<stop offset="1" stop-color="#B82934"/>
</linearGradient>
<linearGradient id="paint88_linear_167_1570" x1="41.6779" y1="15.8185" x2="35.751" y2="9.89191" gradientUnits="userSpaceOnUse">
<stop stop-color="#FFA981" stop-opacity="0"/>
<stop offset="1" stop-color="#B82934"/>
</linearGradient>
<linearGradient id="paint89_linear_167_1570" x1="35.4719" y1="10.0229" x2="36.8456" y2="9.32092" gradientUnits="userSpaceOnUse">
<stop stop-color="#FEFFB3"/>
<stop offset="1" stop-color="#FFCD77"/>
</linearGradient>
<radialGradient id="paint90_radial_167_1570" cx="0" cy="0" r="1" gradientUnits="userSpaceOnUse" gradientTransform="translate(34.5537 6.44511) scale(1.10752 1.10753)">
<stop stop-color="#FEFFB3"/>
<stop offset="0.193" stop-color="#FEF296"/>
<stop offset="0.609" stop-color="#FFD14B"/>
<stop offset="1" stop-color="#FFAF00"/>
</radialGradient>
<radialGradient id="paint91_radial_167_1570" cx="0" cy="0" r="1" gradientUnits="userSpaceOnUse" gradientTransform="translate(34.8713 7.54727) scale(0.549939)">
<stop stop-color="#FEFFB3"/>
<stop offset="0.193" stop-color="#FEF296"/>
<stop offset="0.609" stop-color="#FFD14B"/>
<stop offset="1" stop-color="#FFAF00"/>
</radialGradient>
<radialGradient id="paint92_radial_167_1570" cx="0" cy="0" r="1" gradientUnits="userSpaceOnUse" gradientTransform="translate(35.6008 7.44156) scale(0.549939 0.549941)">
<stop stop-color="#FEFFB3"/>
<stop offset="0.193" stop-color="#FEF296"/>
<stop offset="0.609" stop-color="#FFD14B"/>
<stop offset="1" stop-color="#FFAF00"/>
</radialGradient>
<radialGradient id="paint93_radial_167_1570" cx="0" cy="0" r="1" gradientUnits="userSpaceOnUse" gradientTransform="translate(35.2942 8.24526) scale(0.549939)">
<stop stop-color="#FEFFB3"/>
<stop offset="0.193" stop-color="#FEF296"/>
<stop offset="0.609" stop-color="#FFD14B"/>
<stop offset="1" stop-color="#FFAF00"/>
</radialGradient>
<radialGradient id="paint94_radial_167_1570" cx="0" cy="0" r="1" gradientUnits="userSpaceOnUse" gradientTransform="translate(36.0022 8.3722) scale(0.549939)">
<stop stop-color="#FEFFB3"/>
<stop offset="0.193" stop-color="#FEF296"/>
<stop offset="0.609" stop-color="#FFD14B"/>
<stop offset="1" stop-color="#FFAF00"/>
</radialGradient>
<clipPath id="clip0_167_1570">
<rect width="36" height="36" fill="white" transform="translate(113 10.0001)"/>
</clipPath>
<clipPath id="clip1_167_1570">
<rect width="28" height="28" fill="white" transform="translate(192.572 10.0001) rotate(31.3628)"/>
</clipPath>
<clipPath id="clip2_167_1570">
<rect width="13" height="13" fill="white" transform="translate(31 6.00012)"/>
</clipPath>
</defs>
</svg>
