<svg width="26" height="24" viewBox="0 0 26 24" fill="none" xmlns="http://www.w3.org/2000/svg">
<path d="M24.6489 0.496657C24.0707 -0.0734835 23.0714 -0.129546 21.7583 0.33447C20.8553 0.653688 19.9081 1.18863 19.455 1.63544L15.8159 5.22372L3.83704 3.3685L0.789062 6.37394L10.7484 10.2205L7.55071 13.3735L3.01211 13.6356L0.83584 15.7815L5.76126 18.125L4.38141 19.4856L5.39113 20.4812L6.76913 19.1224L9.1481 23.9768L11.3238 21.8314L11.5897 17.3561L14.8411 14.1501L18.7413 23.9685L21.7892 20.9631L19.9081 9.15372L23.4939 5.61789C23.9471 5.17113 24.4896 4.23719 24.8134 3.34675C25.284 2.05234 25.2271 1.0667 24.6489 0.496657ZM3.34217 5.84781L4.33316 4.87066L14.5667 6.45555L11.8505 9.1338L3.34217 5.84781ZM20.2658 20.474L19.2749 21.4511L15.9431 13.0636L18.6588 10.3857L20.2658 20.474ZM23.4691 2.87177C23.1963 3.62233 22.7454 4.36488 22.4842 4.62241L10.196 16.7392L9.93015 21.2145L9.5595 21.58L7.83851 18.0682L9.07988 16.8441L8.07016 15.8485L6.83083 17.0704L3.26758 15.3751L3.63781 15.01L8.17641 14.748L20.4647 2.63111C20.7259 2.37353 21.479 1.92906 22.2402 1.65995C23.1042 1.35452 23.5627 1.41686 23.6392 1.49228C23.7156 1.56766 23.7789 2.01963 23.4691 2.87177Z" fill="black"/>
</svg>
